<svg xmlns="http://www.w3.org/2000/svg" viewBox="0 0 500 500"><g id="Layer_10" data-name="Layer 10"><rect x="226.45" y="187.12" width="30.55" height="223.96" rx="12" fill="#3fe2fd"/><rect x="140.69" y="187.12" width="30.55" height="223.96" rx="12" transform="translate(-18.62 10.47) rotate(-3.63)" fill="#3fe2fd"/><rect x="304.48" y="187.12" width="30.55" height="223.96" rx="12" transform="translate(19.96 -20) rotate(3.7)" fill="#3fe2fd"/><polygon points="205.51 143.92 71.74 143.92 71.74 96.99 180.15 96.99 205.51 143.92" fill="#3fe2fd"/></g><g id="Layer_3" data-name="Layer 3"><path d="M357.3,470.12H142.7a40.52,40.52,0,0,1-40.44-38.26l-16-289.3a7,7,0,0,1,7-7.39h313.5a7,7,0,0,1,7,7.39l-16,289.3A40.52,40.52,0,0,1,357.3,470.12Zm-256.66-321,15.6,281.92a26.51,26.51,0,0,0,26.46,25H357.3a26.51,26.51,0,0,0,26.46-25l15.6-281.92Z" fill="#251ac7"/><path d="M412.08,149.17H87.92a22.74,22.74,0,0,1-22.15-27.89l4.82-20.7A22.64,22.64,0,0,1,92.74,83H407.26a22.64,22.64,0,0,1,22.15,17.59h0l4.82,20.7a22.74,22.74,0,0,1-22.15,27.89ZM92.74,97a8.71,8.71,0,0,0-8.52,6.76l-4.81,20.7a8.75,8.75,0,0,0,8.51,10.72H412.08a8.75,8.75,0,0,0,8.51-10.72l-4.81-20.7A8.71,8.71,0,0,0,407.26,97Z" fill="#251ac7"/><path d="M319.85,97a7,7,0,0,1-7-7,54,54,0,0,0-54-54H241.11a54,54,0,0,0-54,54,7,7,0,0,1-14,0,68,68,0,0,1,68-68h17.78a68,68,0,0,1,68,68A7,7,0,0,1,319.85,97Z" fill="#251ac7"/><path d="M170.56,411.09a7,7,0,0,1-7-6.58l-12.7-210a7,7,0,0,1,14-.85l12.7,210a7,7,0,0,1-6.56,7.41Z" fill="#251ac7"/><path d="M324.21,411.09l-.43,0a7,7,0,0,1-6.57-7.41l12.7-210a7,7,0,0,1,14,.85l-12.7,210A7,7,0,0,1,324.21,411.09Z" fill="#251ac7"/><path d="M250,411.09a7,7,0,0,1-7-7v-210a7,7,0,0,1,14,0v210A7,7,0,0,1,250,411.09Z" fill="#251ac7"/></g></svg>