<svg id="Layer_1" data-name="Layer 1" xmlns="http://www.w3.org/2000/svg" viewBox="0 0 500 500"><defs><style>.cls-1{fill:#171c44;}.cls-2{fill:#0099f5;}.cls-3{fill:#69e0a2;}.cls-4{fill:#24285b;}</style></defs><title>Learning</title><rect class="cls-1" x="216.52" y="390.68" width="17.85" height="23.79"/><circle class="cls-2" cx="225.45" cy="192.89" r="157.97"/><path class="cls-3" d="M342,246.83c-5.32,5.28-1.66-5.09-9.3-2.21S316,258.47,308.07,261.13c-8.95,3-13.91,3.87-16.27,8,0,0-13,22.28-11,24.6s21.93-10.63,21.93-4.32-4.61,15,9.64,6.65,24.94-17.95,29.59-34.25S347.31,241.56,342,246.83Z"/><path class="cls-3" d="M286.2,209.15c-3.33-.25-9.49-13.26-10.53-6.5a31.86,31.86,0,0,1,7.55,13c2.31,8.08,5.21,15.1,8.59,15.1s7.28-5.47,3.12-11.19-4.16-7.54-3.39-8.33,1.56-7-2.86-12.49-4.94-5.46-4.94-9.1c0-1.61-.2-4.12-.43-6.43,5.43,6.66,10.73,12,13.46,10.74,4.09-1.89,11.34-12.3,6.8-19.11S291,160.8,305,159.41s17.6-20.39,9-29,11.33-21.76-.9-33.54,5.43-27.71-6.81-32.65-49-1.82-66.65-8.62-22.67-1.81-40.8,3.63-25.4-2.72-35.37-.46-26.3,10.39-27.21,20S123.11,85.51,116.76,95s-17.13,16.17-16,26.89c0,0,0,0,0,.07-.48.5-20.51,21.49-20.51,49.1,0,27.95,2.63,28.47,7.9,31.63S105,204.84,105,214.33s7.91,22.14,16.33,36.37,27.42,48.48,36.39,40.6,12.7-31.11,4.21-46.4-.53-22.15,9-37.7,8.38-21.34-3.16-23.45c-8.92-1.64-14.76-24.35-20.6-38.24a4.45,4.45,0,0,1,3.64,2.06c2.72,4.09,8.61,28.56,18.14,30.37s28.57-18.59,21.3-20.85S170.72,141.75,173,135.4c0,0,12.7,14.06,30.37,14.51s15,14.51,22.67,29.47,8.17,16.79,13.15,12.7,3.64-17.23,10.89-24.48,18-4.54,25.39,5.43c1.12,1.51,2.3,3.07,3.5,4.64h0s1.67,17.18,4,18.47S289.52,209.41,286.2,209.15ZM141.86,136.26c-7.92-7.84-23.7-2.61-27.9-8.4-.79-1.08-1.57-2.19-2.35-3.24,2.27-1.62,4-3.74,3.79-5.29-.46-4.35-.9-11.15,6.8-12.06s3.64,3.63,9.52,7.71,20-1.1,20,6.93S148.34,133.53,141.86,136.26Z"/><path class="cls-3" d="M313.18,205.52c-3,2.1-11.13,4.4-11,7,0,0,.27,9.88,2.86,12.23s8.08,3.76,9.82,1.3,8.24-11.26,7.19-13.53-3.17-4.53-1.07-7-.73-7.37-2.37-7.19S316.21,203.42,313.18,205.52Z"/><path class="cls-3" d="M309.24,234.15c-6.55-2.46-15.94-4.39-15.24,0,0,0,9.12,2.63,16.16,3.85s19,1.41,17.55-1.05S315.79,236.6,309.24,234.15Z"/><path class="cls-3" d="M326.81,218.71s-4.39-.7-5.61,1.4-3.9,7.72-2.56,9.65,3.46-5.61,3.9-3.68,2.17,7,3,2.8,0-6.14,1.22-7S329.34,218.78,326.81,218.71Z"/><path class="cls-3" d="M325.4,215.2s6.5-.83,7.19-2.31S321.72,213.09,325.4,215.2Z"/><path class="cls-3" d="M355.58,233.63c2.44-3.5.7-7.21-1.4-11.06s-4.21,0-7.19-.88-4-8.65-7.72-3.09a22.22,22.22,0,0,0,2.63,4c1.41,1.58-.88,4,2.1,6.67s-.52,5.77,0,7.71,3.46,4.73,5.26,1.93,3.16-2.63,3.16,0,1.23,5.62,3.16,3S353.13,237.12,355.58,233.63Z"/><path class="cls-4" d="M224.56,401.86A209,209,0,0,1,76.62,340.48a13.65,13.65,0,0,1,.79-19.91h0a13.63,13.63,0,0,1,18.6.74A181.69,181.69,0,0,0,224.56,374.6c100.19,0,181.7-81.52,181.7-181.71A180,180,0,0,0,359.52,71.21a13.62,13.62,0,0,1,.24-18.6h0a13.63,13.63,0,0,1,19.87.21,207,207,0,0,1,53.88,140.08C433.52,308.12,339.78,401.86,224.56,401.86Z"/><path class="cls-4" d="M156.64,414.47H294.25a3.64,3.64,0,0,1,3.64,3.64v16.58a0,0,0,0,1,0,0H153a0,0,0,0,1,0,0V418.11A3.64,3.64,0,0,1,156.64,414.47Z"/><path class="cls-1" d="M128.27,434.69H322.62a3.64,3.64,0,0,1,3.64,3.64v26.74a0,0,0,0,1,0,0H124.63a0,0,0,0,1,0,0V438.34A3.64,3.64,0,0,1,128.27,434.69Z"/></svg>