<svg xmlns="http://www.w3.org/2000/svg" viewBox="0 0 400 300" data-imageid="science-discovery-outline" imageName="Science discovery" class="illustrations_image" style="width: 147px;"><g id="_467_science_discovery_outline" data-name="#467_science_discovery_outline"><circle cx="199.36" cy="209.04" r="21.02" fill="#093f68"/><path d="M199.36,231.06a22,22,0,1,1,22-22A22,22,0,0,1,199.36,231.06Zm0-42a20,20,0,1,0,20,20A20,20,0,0,0,199.36,189Z" fill="#093f68"/><path d="M247.27,121.74a47.27,47.27,0,1,0-85,28.53,69.32,69.32,0,0,1,14.13,41.9h47.1a67.25,67.25,0,0,1,13.76-41.42A47,47,0,0,0,247.27,121.74Z" fill="#029de4" class="target-color"/><path d="M223.55,193.17h-47.1a1,1,0,0,1-1-1,68.77,68.77,0,0,0-13.93-41.3,48.27,48.27,0,1,1,76.58.5,66.48,66.48,0,0,0-13.55,40.8A1,1,0,0,1,223.55,193.17Zm-46.1-2h45.1a68.38,68.38,0,0,1,14-41,45.78,45.78,0,0,0,9.75-28.4A46.45,46.45,0,0,0,231.56,87.9a46.27,46.27,0,0,0-68.45,61.77A70.73,70.73,0,0,1,177.45,191.17Z" fill="#093f68"/><rect x="170.74" y="205.3" width="57.24" height="13.08" rx="5.48" fill="#fff"/><path d="M222.5,219.38H176.22a6.49,6.49,0,0,1-6.48-6.48v-2.12a6.48,6.48,0,0,1,6.48-6.48H222.5a6.48,6.48,0,0,1,6.48,6.48v2.12A6.49,6.49,0,0,1,222.5,219.38ZM176.22,206.3a4.49,4.49,0,0,0-4.48,4.48v2.12a4.49,4.49,0,0,0,4.48,4.48H222.5A4.49,4.49,0,0,0,227,212.9v-2.12a4.49,4.49,0,0,0-4.48-4.48Z" fill="#093f68"/><rect x="170.74" y="192.22" width="57.24" height="13.08" rx="5.48" fill="#fff"/><path d="M222.5,206.3H176.22a6.49,6.49,0,0,1-6.48-6.48V197.7a6.49,6.49,0,0,1,6.48-6.48H222.5A6.49,6.49,0,0,1,229,197.7v2.12A6.49,6.49,0,0,1,222.5,206.3Zm-46.28-13.08a4.49,4.49,0,0,0-4.48,4.48v2.12a4.49,4.49,0,0,0,4.48,4.48H222.5a4.49,4.49,0,0,0,4.48-4.48V197.7a4.49,4.49,0,0,0-4.48-4.48Z" fill="#093f68"/><rect x="170.74" y="179.14" width="57.24" height="13.08" rx="5.48" fill="#fff"/><path d="M222.5,193.22H176.22a6.48,6.48,0,0,1-6.48-6.47v-2.13a6.49,6.49,0,0,1,6.48-6.48H222.5a6.49,6.49,0,0,1,6.48,6.48v2.13A6.48,6.48,0,0,1,222.5,193.22Zm-46.28-13.08a4.49,4.49,0,0,0-4.48,4.48v2.13a4.48,4.48,0,0,0,4.48,4.47H222.5a4.48,4.48,0,0,0,4.48-4.47v-2.13a4.49,4.49,0,0,0-4.48-4.48Z" fill="#093f68"/><path d="M187.46,176.06a1,1,0,0,1-1-.81l-11.36-60.18a1,1,0,0,1,1.65-.93l14.66,13,8.66-14.67a1,1,0,0,1,1.75.05l7.72,15,12.78-13.23a1,1,0,0,1,1.71.86l-9.73,60a1,1,0,1,1-2-.32L221.56,118,210,130a1,1,0,0,1-.87.29,1,1,0,0,1-.74-.53L200.89,115l-8.35,14.15a1,1,0,0,1-.71.48,1,1,0,0,1-.82-.24l-13.38-11.85,10.81,57.3a1,1,0,0,1-.79,1.17Z" fill="#fff"/><path d="M142.49,167.9c-15.24,0-25.32-3.64-27.91-10.61-4-10.75,10.59-27.1,38.07-42.66a1,1,0,1,1,1,1.74c-26.17,14.82-40.77,30.6-37.19,40.22s24.63,12,53.72,6.26a254.29,254.29,0,0,0,39.51-11.34,258,258,0,0,0,34.69-15.78c27.5-15.17,42.87-31.39,39.18-41.32-3.48-9.35-23.24-11.9-51.57-6.67a1,1,0,0,1-.36-2c29.8-5.5,49.91-2.53,53.8,7.94,4.13,11.08-11.23,27.86-40.08,43.77a259.05,259.05,0,0,1-35,15.9,256,256,0,0,1-39.81,11.43A148.74,148.74,0,0,1,142.49,167.9Z" fill="#093f68"/><path d="M257.51,167.91a148,148,0,0,1-28.2-3.12,256.34,256.34,0,0,1-39.68-11.41,261.48,261.48,0,0,1-35-15.9c-28.83-15.92-44.18-32.69-40.06-43.77,3.9-10.5,24-13.46,53.87-7.92a1,1,0,1,1-.37,2c-27.93-5.18-48.2-2.57-51.63,6.66-3.69,9.93,11.68,26.15,39.16,41.32a259.14,259.14,0,0,0,34.71,15.78,256.09,256.09,0,0,0,39.38,11.32c29.17,5.75,50.31,3.3,53.85-6.24s-11-25.4-37.19-40.2a1,1,0,1,1,1-1.74c27.49,15.54,42.08,31.88,38.08,42.64C282.83,164.26,272.75,167.91,257.51,167.91Z" fill="#093f68"/><circle cx="127.03" cy="164.46" r="7.46" fill="#ffbc0e"/><path d="M127,172.92a8.46,8.46,0,1,1,8.46-8.46A8.47,8.47,0,0,1,127,172.92ZM127,158a6.46,6.46,0,1,0,6.46,6.46A6.47,6.47,0,0,0,127,158Z" fill="#093f68"/><circle cx="265.23" cy="125.5" r="7.46" fill="#f56132"/><path d="M265.23,134a8.46,8.46,0,1,1,8.46-8.46A8.46,8.46,0,0,1,265.23,134Zm0-14.92a6.46,6.46,0,1,0,6.46,6.46A6.47,6.47,0,0,0,265.23,119Z" fill="#093f68"/><circle cx="149.75" cy="81.93" r="7.46" fill="#70cc40"/><path d="M149.75,90.39a8.46,8.46,0,1,1,8.46-8.46A8.48,8.48,0,0,1,149.75,90.39Zm0-14.92a6.46,6.46,0,1,0,6.46,6.46A6.46,6.46,0,0,0,149.75,75.47Z" fill="#093f68"/><path d="M134.49,195.44a1,1,0,0,1-1-1V188a1,1,0,1,1,2,0v6.41A1,1,0,0,1,134.49,195.44Z" fill="#dfeaef"/><path d="M134.49,209.5a1,1,0,0,1-1-1v-6.41a1,1,0,0,1,2,0v6.41A1,1,0,0,1,134.49,209.5Z" fill="#dfeaef"/><path d="M144.73,199.27h-6.41a1,1,0,0,1,0-2h6.41a1,1,0,0,1,0,2Z" fill="#dfeaef"/><path d="M130.66,199.27h-6.41a1,1,0,1,1,0-2h6.41a1,1,0,0,1,0,2Z" fill="#dfeaef"/><path d="M242.05,61.35a1,1,0,0,1-1-1V53.94a1,1,0,0,1,2,0v6.41A1,1,0,0,1,242.05,61.35Z" fill="#dfeaef"/><path d="M242.05,75.42a1,1,0,0,1-1-1V68a1,1,0,0,1,2,0v6.42A1,1,0,0,1,242.05,75.42Z" fill="#dfeaef"/><path d="M252.29,65.18h-6.41a1,1,0,1,1,0-2h6.41a1,1,0,0,1,0,2Z" fill="#dfeaef"/><path d="M238.22,65.18h-6.41a1,1,0,1,1,0-2h6.41a1,1,0,0,1,0,2Z" fill="#dfeaef"/><path d="M259.28,186.88a1,1,0,0,1-1-1v-5.31a1,1,0,0,1,2,0v5.31A1,1,0,0,1,259.28,186.88Z" fill="#dfeaef"/><path d="M259.28,198.53a1,1,0,0,1-1-1v-5.31a1,1,0,0,1,2,0v5.31A1,1,0,0,1,259.28,198.53Z" fill="#dfeaef"/><path d="M267.76,190.05h-5.31a1,1,0,0,1,0-2h5.31a1,1,0,0,1,0,2Z" fill="#dfeaef"/><path d="M256.11,190.05H250.8a1,1,0,0,1,0-2h5.31a1,1,0,0,1,0,2Z" fill="#dfeaef"/></g></svg>