<?xml version="1.0" standalone="no"?><!DOCTYPE svg PUBLIC "-//W3C//DTD SVG 1.1//EN" "http://www.w3.org/Graphics/SVG/1.1/DTD/svg11.dtd"><svg t="1699717692021" class="icon" viewBox="0 0 1024 1024" version="1.1" xmlns="http://www.w3.org/2000/svg" p-id="4632" xmlns:xlink="http://www.w3.org/1999/xlink" width="200" height="200"><path d="M511.990184 959.958281a448.06626 448.06626 0 0 1-174.318341-860.705396A448.06626 448.06626 0 0 1 686.357606 924.747115a445.121362 445.121362 0 0 1-174.367422 35.211166z m0-876.283907c-236.161203 0-428.31581 192.144791-428.31581 428.325626s192.154607 428.325626 428.31581 428.325626 428.325626-192.144791 428.325626-428.325626S748.171019 83.674374 511.990184 83.674374z" fill="#3C7BB5" p-id="4633"></path><path d="M511.990184 909.207868a396.933011 396.933011 0 1 1 154.999808-31.274818 395.725603 395.725603 0 0 1-154.999808 31.274818z m0-786.552858c-214.14318 0-388.314276 174.220177-388.314276 388.363357s174.171096 388.373174 388.314276 388.373174 388.373174-174.229993 388.373173-388.373174-174.220177-388.363357-388.373173-388.363357z" fill="#3C7BB5" p-id="4634"></path><path d="M316.743433 440.124851s-136.132827-14.371103-164.796503 175.506116c0 0 45.380881-35.829595 164.796503-34.632002zM707.236934 574.775413s136.142644 14.331838 164.806319-175.535565c0 0-45.380881 35.819778-164.806319 34.632003z" fill="#3C7BB5" p-id="4635"></path><path d="M514.984164 349.549599a162.450401 162.450401 0 1 1-114.85103 47.579739 161.390237 161.390237 0 0 1 114.85103-47.579739m0-58.897964c-122.242724 0-221.348365 99.095824-221.348365 221.348365s99.144906 221.348365 221.348365 221.348365 221.358181-99.144906 221.35818-221.348365-99.144906-221.348365-221.35818-221.348365z" fill="#3C7BB5" p-id="4636"></path><path d="M491.611488 704.085893a24.540818 24.540818 0 0 1-7.411327-47.942943c11.57345-3.671306 53.636412-30.65639 57.268454-75.124353 1.344837-16.520879-20.172553-34.710533-40.983167-52.291575-26.739676-22.577553-57.052494-48.198167-57.052494-85.402048 0-21.664634 10.640899-53.597147 61.322596-82.624027a289.35588 289.35588 0 0 1 54.09778-23.608267 24.540818 24.540818 0 0 1 14.174777 46.990759 242.963917 242.963917 0 0 0-44.536677 19.583573c-22.862226 13.222593-35.97684 27.682043-35.97684 39.657962 0 14.400552 20.15292 31.412247 39.648146 47.893861 13.615246 11.553817 27.77039 23.510104 38.745044 37.252962 14.724491 18.464512 21.075655 36.948656 19.475594 56.522413-5.575674 68.302005-65.052801 109.569845-91.340926 117.913724a24.442655 24.442655 0 0 1-7.43096 1.177959z" fill="#3C7BB5" p-id="4637"></path></svg>