<?xml version="1.0" standalone="no"?><!DOCTYPE svg PUBLIC "-//W3C//DTD SVG 1.1//EN" "http://www.w3.org/Graphics/SVG/1.1/DTD/svg11.dtd"><svg t="1699717452819" class="icon" viewBox="0 0 1075 1024" version="1.1" xmlns="http://www.w3.org/2000/svg" p-id="3231" xmlns:xlink="http://www.w3.org/1999/xlink" width="209.9609375" height="200"><path d="M906.790246 611.995562c-4.782454-65.857825-1.598555-54.852896-15.853438-119.865205-35.921249-162.880867-247.194736-211.762302-354.70747-211.762301-110.749477 0-318.786221 48.881435-354.654625 211.762301-14.307728 65.012308-11.123829 54.00738-15.853438 119.865205s-49.039969 73.982712-31.812566 189.422165c25.841104 173.291291 365.9502 215.93704 401.620436 215.93704a8.481589 8.481589 0 0 0 1.532499 0c36.145839 0 375.752909-42.645749 401.620436-215.93704 17.134925-115.505509-27.122591-123.551129-31.891834-189.422165z" fill="#F4F6F5" p-id="3232"></path><path d="M536.533196 1024h-1.215431c-18.654212-0.079267-112.295188-10.568959-206.451399-43.359154-53.637466-18.693846-97.498645-41.284995-130.381319-67.139311-40.954716-32.235324-64.906619-69.596594-71.089459-111.066546-11.070984-74.233725 3.131054-106.416204 15.668481-134.754225 7.38506-16.765011 14.373784-32.592027 16.078029-56.068327 0.924784-12.867707 1.558921-22.881796 2.074158-30.940627 2.127003-33.582867 2.351593-37.097046 13.964237-89.83615 8.666546-39.395794 27.743517-74.709328 56.649619-104.949761 25.035221-26.197807 57.42908-48.590788 96.270004-66.584441 90.972313-42.143723 182.31454-45.420101 208.182067-45.420101 52.382402 0 134.265411 11.890079 206.953425 45.40689 84.683783 38.90698 137.977758 98.225261 154.09542 171.428512 11.625855 52.765527 11.890079 56.266495 13.964237 89.83615 0.515237 8.058831 1.149374 18.086131 2.074158 30.953839 1.704245 23.4763 8.692969 39.303316 16.09124 56.068326 12.524216 28.390866 26.726255 60.573345 15.668482 134.754225-6.196052 41.469952-30.081899 78.831222-71.023404 111.066547-32.856251 25.854316-76.624952 48.445465-130.275629 67.139311-93.654187 32.671294-186.93846 43.160986-206.332499 43.345942a8.904348 8.904348 0 0 1-0.964417 0.118901z m-0.832306-13.211199h1.32112c17.002813 0 110.881589-10.661437 202.48804-42.619326 80.588311-28.126642 179.500555-80.059863 192.56643-167.689743 10.568959-70.442111-2.298749-99.453903-14.677641-127.514489-7.530383-17.055657-15.311779-34.692607-17.174558-60.454444-0.937995-12.933763-1.572133-22.987485-2.08737-31.072739-2.113792-33.345065-2.285537-36.066572-13.67359-87.84126-19.195872-87.19391-90.417443-136.432047-146.776416-162.392052-70.759179-32.578816-150.449129-44.191459-201.431144-44.191459-121.675139 0-314.822862 55.011431-348.19435 206.583511-11.401264 51.774687-11.57301 54.496194-13.686801 87.854471-0.515237 8.085254-1.149374 18.138976-2.08737 31.059528-1.862779 25.761837-9.644175 43.398787-17.174558 60.454444-12.378893 28.060586-25.180544 57.072378-14.677641 127.514489 13.065875 87.616669 112.030964 139.54989 192.764598 167.689743 83.230551 29.064637 168.046446 40.465901 195.684273 42.275835v-0.092478z" fill="#BCC6CE" p-id="3233"></path><path d="M906.790246 611.995562c-4.782454-65.857825-1.598555-54.852896-15.853438-119.865205-35.921249-162.880867-247.194736-211.762302-354.70747-211.762301-110.749477 0-318.786221 48.881435-354.654625 211.762301-14.307728 65.012308-11.123829 54.00738-15.853438 119.865205s-49.039969 73.982712-31.812566 189.422165c25.841104 173.291291 365.9502 215.93704 401.620436 215.93704a8.481589 8.481589 0 0 0 1.532499 0c36.145839 0 375.752909-42.645749 401.620436-215.93704 17.134925-115.505509-27.122591-123.551129-31.891834-189.422165z" fill="#F4F6F5" p-id="3234"></path><path d="M536.533196 1024h-1.215431c-18.654212-0.079267-112.295188-10.568959-206.451399-43.359154-53.637466-18.693846-97.498645-41.284995-130.381319-67.139311-40.954716-32.235324-64.906619-69.596594-71.089459-111.066546-11.070984-74.233725 3.131054-106.416204 15.668481-134.754225 7.38506-16.765011 14.373784-32.592027 16.078029-56.068327 0.924784-12.867707 1.558921-22.881796 2.074158-30.940627 2.127003-33.582867 2.351593-37.097046 13.964237-89.83615 8.666546-39.395794 27.743517-74.709328 56.649619-104.949761 25.035221-26.197807 57.42908-48.590788 96.270004-66.584441 90.972313-42.143723 182.31454-45.420101 208.182067-45.420101 52.382402 0 134.265411 11.890079 206.953425 45.40689 84.683783 38.90698 137.977758 98.225261 154.09542 171.428512 11.625855 52.765527 11.890079 56.266495 13.964237 89.83615 0.515237 8.058831 1.149374 18.086131 2.074158 30.953839 1.704245 23.4763 8.692969 39.303316 16.09124 56.068326 12.524216 28.390866 26.726255 60.573345 15.668482 134.754225-6.196052 41.469952-30.081899 78.831222-71.023404 111.066547-32.856251 25.854316-76.624952 48.445465-130.275629 67.139311-93.654187 32.671294-186.93846 43.160986-206.332499 43.345942a8.904348 8.904348 0 0 1-0.964417 0.118901z m-0.832306-13.211199h1.32112c17.002813 0 110.881589-10.661437 202.48804-42.619326 80.588311-28.126642 179.500555-80.059863 192.56643-167.689743 10.568959-70.442111-2.298749-99.453903-14.677641-127.514489-7.530383-17.055657-15.311779-34.692607-17.174558-60.454444-0.937995-12.933763-1.572133-22.987485-2.08737-31.072739-2.113792-33.345065-2.285537-36.066572-13.67359-87.84126-19.195872-87.19391-90.417443-136.432047-146.776416-162.392052-70.759179-32.578816-150.449129-44.191459-201.431144-44.191459-121.675139 0-314.822862 55.011431-348.19435 206.583511-11.401264 51.774687-11.57301 54.496194-13.686801 87.854471-0.515237 8.085254-1.149374 18.138976-2.08737 31.059528-1.862779 25.761837-9.644175 43.398787-17.174558 60.454444-12.378893 28.060586-25.180544 57.072378-14.677641 127.514489 13.065875 87.616669 112.030964 139.54989 192.764598 167.689743 83.230551 29.064637 168.046446 40.465901 195.684273 42.275835v-0.092478z" fill="#BCC6CE" p-id="3235"></path><path d="M228.197033 670.415482a100.484376 90.615611 90 1 0 181.231221 0 100.484376 90.615611 90 1 0-181.231221 0Z" fill="#6D8930" p-id="3236"></path><path d="M342.949503 639.012463m-27.941685 0a27.941685 27.941685 0 1 0 55.88337 0 27.941685 27.941685 0 1 0-55.88337 0Z" fill="#FFFFFF" p-id="3237"></path><path d="M663.030422 670.415482a100.484376 90.615611 90 1 0 181.231222 0 100.484376 90.615611 90 1 0-181.231222 0Z" fill="#6D8930" p-id="3238"></path><path d="M729.509173 639.012463m-27.941685 0a27.941685 27.941685 0 1 0 55.88337 0 27.941685 27.941685 0 1 0-55.88337 0Z" fill="#FFFFFF" p-id="3239"></path><path d="M403.166146 887.131983s7.926719 48.022707 18.099342 46.490208 29.857309-37.863295 29.857309-37.863295z" fill="#FFFFFF" p-id="3240"></path><path d="M420.710618 936.964624c-5.918617 0-10.727493-7.847452-15.496736-25.101277-3.249955-11.890079-5.284479-23.661257-5.284479-24.150071l-0.76625-4.62392 57.045956 10.265101-2.166637 3.96336c-3.4217 6.301742-21.032228 37.863295-32.261747 39.554329a5.786505 5.786505 0 0 1-1.070107 0.092478z m-13.435789-45.737169c0.819094 4.320062 2.219481 11.097407 4.042627 17.86154 5.429803 20.186711 9.446007 21.27003 9.48564 21.27003 4.835299-0.726616 16.302619-16.566843 25.193756-32.169269z" fill="#BCC6CE" p-id="3241"></path><path d="M671.049619 887.131983s-7.926719 48.022707-18.099342 46.490208-29.844098-37.863295-29.844097-37.863295z" fill="#FFFFFF" p-id="3242"></path><path d="M653.505148 936.964624a5.641182 5.641182 0 0 1-1.043685-0.079267c-11.24273-1.691033-28.853258-33.252587-32.261747-39.554329l-2.179848-3.963359 57.045956-10.265102-0.753039 4.62392c-0.079267 0.488814-2.047736 12.312837-5.284479 24.150071-4.782454 17.30667-9.630964 25.088066-15.523158 25.088066z m-25.273023-38.774868c8.877925 15.602425 20.358457 31.442653 25.206967 32.169269 0 0 3.96336-1.083318 9.459218-21.27003 1.823145-6.764134 3.223532-13.541479 4.055838-17.86154zM445.904374 904.412231a67.720604 67.720604 0 0 1-25.431558-4.782454c-28.747568-11.559799-44.257515-41.218939-44.257515-63.255219 0-49.185292 16.738589-68.988879 17.451994-69.807973a6.605599 6.605599 0 0 1 10.000877 8.613701c-0.303858 0.369914-14.241672 17.795484-14.241672 61.194272 0 17.716217 12.603483 41.602064 35.974093 50.995227 29.97621 12.061824 68.235841-3.96336 107.737325-45.089821a6.605599 6.605599 0 1 1 9.525274 9.142149c-40.413056 42.090879-73.441053 52.990117-96.758818 52.990118z" fill="#BCC6CE" p-id="3243"></path><path d="M629.896736 904.412231c-23.317765 0-56.332551-10.886028-96.758818-52.990118a6.605599 6.605599 0 1 1 9.525274-9.142149c39.501484 41.139672 77.774326 57.151645 107.750535 45.089821 23.357399-9.393162 35.960882-33.279009 35.960883-50.995227 0-43.596955-14.096349-61.022526-14.241672-61.194272a6.605599 6.605599 0 0 1 10.000877-8.613701c0.713405 0.819094 17.451993 20.622681 17.451993 69.807973 0 22.036279-15.509947 51.69542-44.244304 63.255219a67.852716 67.852716 0 0 1-25.444768 4.782454z" fill="#BCC6CE" p-id="3244"></path><path d="M418.292969 594.78137a3.183899 3.183899 0 0 0 5.429802-2.906464c-4.637131-20.160289-14.320939-60.863992-20.622681-77.523313-6.605599-17.240614-66.055993-28.192698-93.416385-32.367436a44.548162 44.548162 0 0 1-24.123648-11.890079l-27.954896-26.646987a3.844459 3.844459 0 0 0-6.486699 3.236743c2.53655 21.415353 9.049671 68.975668 18.112553 80.495833 11.771178 14.99471 119.667037 39.369372 132.798968 51.404774 6.06394 5.667604 11.863656 11.546588 16.262986 16.196929zM210.599716 746.987589a6.354587 6.354587 0 0 1 11.34842-2.298749c8.983615 12.431738 24.321817 30.821726 39.224048 35.326745 16.540421 5.007044 48.590788 6.420642 69.675861 5.416591a6.354587 6.354587 0 0 1 4.584286 11.01814c-14.241672 13.211199-36.885666 31.957889-53.914901 36.053361-26.779099 6.420642-56.226861 3.884092-67.482802-17.676584-10.344368-19.830009-9.274261-41.628487-3.434912-67.839504zM650.360882 594.78137a3.19711 3.19711 0 0 1-5.429802-2.906464c4.637131-20.160289 14.320939-60.863992 20.649103-77.470468 6.605599-17.240614 66.055993-28.192698 93.429596-32.367436a44.561373 44.561373 0 0 0 24.110438-11.890079l27.968107-26.646988a3.844459 3.844459 0 0 1 6.486699 3.236744c-2.53655 21.415353-9.062882 68.975668-18.112554 80.495833-11.784389 14.99471-119.667037 39.369372-132.812179 51.404774-6.090363 5.614759-11.876868 11.493743-16.289408 16.144084zM858.067346 746.987589a6.367798 6.367798 0 0 0-11.361631-2.298749c-8.970404 12.431738-24.321817 30.821726-39.210837 35.326745-16.553632 5.007044-48.590788 6.420642-69.689072 5.416591a6.354587 6.354587 0 0 0-4.584286 11.01814c14.241672 13.211199 36.898878 31.957889 53.928112 36.053361 26.765888 6.420642 56.226861 3.884092 67.469591-17.676584 10.344368-19.830009 9.287473-41.628487 3.448123-67.839504z" fill="#B185D2" p-id="3245"></path><path d="M405.821597 401.197678l-123.643607-216.399433a21.137918 21.137918 0 0 0-24.440717-9.749864l-97.300478 29.183537a11.969346 11.969346 0 0 1-11.586221-2.642239c-17.689795-16.447942-78.59342-72.344523-123.273694-103.998555a11.982557 11.982557 0 0 0-18.41641 13.211198l71.168726 233.838215a11.982557 11.982557 0 0 0 15.047555 7.926719l135.203406-42.407948a11.890079 11.890079 0 0 1 11.282364 2.245904l105.967024 88.779255" fill="#F4F6F5" p-id="3246"></path><path d="M341.58875 406.257567l-105.967024-88.752832a5.363747 5.363747 0 0 0-5.059889-1.004051l-135.203406 42.407947a18.601368 18.601368 0 0 1-23.357399-12.339259L0.832306 112.731157a18.601368 18.601368 0 0 1 28.562611-20.569836c44.984131 31.865411 106.244459 88.079061 123.947465 104.553425a5.429803 5.429803 0 0 0 5.205212 1.20222l97.287266-29.183538a27.637827 27.637827 0 0 1 32.07679 12.801651l123.656819 216.399433-11.480532 6.605599-123.643607-216.505122a14.532318 14.532318 0 0 0-16.804645-6.605599l-97.300477 29.196749a18.654212 18.654212 0 0 1-17.993653-4.18795c-17.557683-16.329041-78.276351-72.053877-122.586711-103.443685a5.376958 5.376958 0 0 0-8.283421 5.945039l71.168726 233.838215a5.376958 5.376958 0 0 0 6.764134 3.567023l135.190195-42.407947a18.495678 18.495678 0 0 1 17.504838 3.487756l105.967023 88.779255z" fill="#BCC6CE" p-id="3247"></path><path d="M95.411276 182.75051a16.936757 16.936757 0 0 0 19.896065-11.731545C89.043478 147.648355 54.033802 117.658934 25.57688 97.511857a11.982557 11.982557 0 0 0-18.41641 13.211198l55.487034 182.31454a16.619688 16.619688 0 0 0 12.075035-16.447942v-76.915598a17.253825 17.253825 0 0 1 20.688737-16.923545z" fill="#B185D2" p-id="3248"></path><path d="M58.287808 301.334228L0.832306 112.731157a18.601368 18.601368 0 0 1 28.562611-20.569836c29.170326 20.662315 65.210476 51.629364 90.311753 73.982712l3.210321 2.86683-1.321119 4.095472a23.634834 23.634834 0 0 1-27.505716 16.183718 10.635015 10.635015 0 0 0-12.775229 10.423636v76.968442a23.304554 23.304554 0 0 1-16.7518 22.762895z m-39.633596-199.489098a5.654393 5.654393 0 0 0-3.19711 1.070107 5.284479 5.284479 0 0 0-1.994891 5.931828L66.386273 282.719649a10.661437 10.661437 0 0 0 1.704244-6.103574v-76.94202a23.846213 23.846213 0 0 1 28.628668-23.37061 10.080144 10.080144 0 0 0 10.397213-3.685925c-24.586041-21.772055-58.129274-50.387511-85.370765-69.689072a5.284479 5.284479 0 0 0-3.091421-1.056896z" fill="#7A45A8" p-id="3249"></path><path d="M669.966301 401.197678l123.656819-216.399433a21.137918 21.137918 0 0 1 24.427506-9.749864l97.300477 29.183537a11.995768 11.995768 0 0 0 11.599432-2.642239c17.676584-16.447942 78.580209-72.344523 123.260483-103.998555a11.995768 11.995768 0 0 1 18.429622 13.211198l-71.168727 233.838215a11.995768 11.995768 0 0 1-15.060766 7.926719l-135.203406-42.407948a11.890079 11.890079 0 0 0-11.282364 2.245904l-105.967023 88.779255" fill="#F4F6F5" p-id="3250"></path><path d="M734.21236 406.257567l-8.48159-10.119778 105.967024-88.779255a18.495678 18.495678 0 0 1 17.504838-3.487756l135.190195 42.407947a5.363747 5.363747 0 0 0 6.764133-3.567023l71.168727-233.838215a5.376958 5.376958 0 0 0-8.283421-5.945039c-44.323571 31.389808-105.029029 87.114643-122.586712 103.443685a18.654212 18.654212 0 0 1-17.993652 4.18795l-97.287266-29.130693a14.532318 14.532318 0 0 0-16.738589 6.605599l-123.656819 216.386221-11.46732-6.605599 123.656819-216.399432a27.611405 27.611405 0 0 1 32.063579-12.801652l97.287266 29.183538a5.429803 5.429803 0 0 0 5.205212-1.202219c17.703006-16.474365 78.963334-72.661592 123.947465-104.553426a18.601368 18.601368 0 0 1 28.496555 20.688737l-71.168727 233.838215a18.601368 18.601368 0 0 1-23.37061 12.312837l-135.190195-42.407948a5.376958 5.376958 0 0 0-5.0731 1.004051z" fill="#BCC6CE" p-id="3251"></path><path d="M980.429467 182.75051a16.936757 16.936757 0 0 1-19.896065-11.731545c26.263863-23.37061 61.273539-53.360031 89.730461-73.507108a11.995768 11.995768 0 0 1 18.429622 13.211198l-55.487034 182.31454a16.619688 16.619688 0 0 1-12.075036-16.447942v-76.915598a17.253825 17.253825 0 0 0-20.701948-16.923545z" fill="#B185D2" p-id="3252"></path><path d="M1017.566146 301.334228l-6.314953-1.928835a23.304554 23.304554 0 0 1-16.765011-22.762895v-76.968443a10.635015 10.635015 0 0 0-12.775229-10.423636A23.634834 23.634834 0 0 1 954.205238 173.066701l-1.32112-4.095471 3.210321-2.866831c25.101277-22.326926 61.128216-53.293975 90.298543-73.982711a18.601368 18.601368 0 0 1 28.575822 20.609469z m-33.688556-125.506386a23.859425 23.859425 0 0 1 23.780157 23.859424v76.968443a10.661437 10.661437 0 0 0 1.717456 6.103574l52.844794-173.872585a5.376958 5.376958 0 0 0-8.283421-5.945039c-27.254703 19.301561-60.771513 47.917017-85.370765 69.689073a10.080144 10.080144 0 0 0 10.397213 3.685924 23.780157 23.780157 0 0 1 4.914566-0.502026z" fill="#7A45A8" p-id="3253"></path><path d="M682.688685 295.719468c-53.597833-16.381886-107.010708-22.974274-146.459347-22.974274-39.224049 0-90.655244 6.143207-142.311031 21.296452 34.190582 92.47839 104.804438 276.972778 133.552007 304.518127 30.570713 29.31565 119.574558-204.430086 155.218371-302.840305z" fill="#B185D2" p-id="3254"></path><path d="M472.894852 354.496091l-72.185989-194.680222c-3.884092-10.47648 9.393162-18.73348 17.068869-10.568959a10.25189 10.25189 0 0 0 17.676584-7.834241l-5.456225-71.882131a10.25189 10.25189 0 0 1 17.016023-8.455167l57.336602 50.678158a10.265101 10.265101 0 0 0 17.002813-6.6056l9.604541-89.320913c1.202219-11.097407 16.778222-12.56385 20.014966-1.87599l26.620565 87.682724a10.265101 10.265101 0 0 0 18.495678 2.576184l11.176674-17.412359a10.265101 10.265101 0 0 1 18.654212 3.474545l7.636073 38.14073a10.25189 10.25189 0 0 0 16.883912 5.654393l27.201857-24.242549a10.265101 10.265101 0 0 1 16.831067 9.92161l-96.996619 247.340059a10.25189 10.25189 0 0 1-14.638008 4.584286l-3.395278-2.034525a10.265101 10.265101 0 0 0-15.166456 6.314953l-5.588337 22.141969a10.25189 10.25189 0 0 1-19.61863 0.937995l-10.053722-28.271965a10.265101 10.265101 0 0 0-17.293459-3.434911l-13.211199 14.611585a10.265101 10.265101 0 0 1-17.30667-3.474545z" fill="#ED7328" p-id="3255"></path><path d="M548.674287 412.413985a16.540421 16.540421 0 0 1-15.853438-11.216307l-10.053722-28.285176a3.646291 3.646291 0 0 0-6.156419-1.215431l-13.105509 14.598375a16.870701 16.870701 0 0 1-28.456921-5.707238L466.6988 356.702361l-72.185989-194.600955a16.870701 16.870701 0 0 1 28.060586-17.451993 3.659502 3.659502 0 0 0 6.301742-2.800774l-5.469437-71.882131a16.870701 16.870701 0 0 1 27.981319-13.911393l57.402658 50.678158a3.646291 3.646291 0 0 0 6.050729-2.338382l9.617752-89.320913a16.870701 16.870701 0 0 1 32.909096-3.091421l26.620565 87.682725a3.646291 3.646291 0 0 0 6.605599 0.911573l11.189885-17.399149a16.857489 16.857489 0 0 1 30.716037 5.812927l7.636073 38.140731a3.646291 3.646291 0 0 0 6.011095 2.008102l27.215069-24.229338a16.857489 16.857489 0 0 1 27.66425 16.302619l-0.10569 0.488814-0.184956 0.475603-97.168366 247.472172v0.145323a16.870701 16.870701 0 0 1-24.057592 7.556805l-3.395278-2.034524a3.646291 3.646291 0 0 0-5.429803 2.245904l-5.522281 22.075912a16.553632 16.553632 0 0 1-15.549581 12.762018z m-29.315649-55.156754a18.020075 18.020075 0 0 1 3.342433 0.33028 16.765011 16.765011 0 0 1 12.616694 10.899239l10.040511 28.285176a3.659502 3.659502 0 0 0 6.988724-0.33028l5.456225-22.128757a16.857489 16.857489 0 0 1 25.035222-10.370791l3.395278 2.034524a3.593446 3.593446 0 0 0 2.972519 0.356703 3.659502 3.659502 0 0 0 2.193059-1.87599l96.705974-246.57381a3.461334 3.461334 0 0 0-1.783512-3.567024 3.500968 3.500968 0 0 0-4.280428 0.409547l-27.215069 24.24255a16.870701 16.870701 0 0 1-27.743517-9.247839l-7.636073-38.127519a3.659502 3.659502 0 0 0-6.605599-1.32112l-11.189886 17.399148a16.857489 16.857489 0 0 1-30.385756-4.214372l-26.620565-87.695936a3.659502 3.659502 0 0 0-7.134048 0.673771l-9.604541 89.320913a16.870701 16.870701 0 0 1-27.941685 10.833183l-57.336602-50.691369a3.659502 3.659502 0 0 0-6.06394 3.025365l5.469436 71.882131a16.870701 16.870701 0 0 1-29.064636 12.867708 3.659502 3.659502 0 0 0-6.077152 3.791614l72.225623 194.7727 8.3759 23.92548a3.659502 3.659502 0 0 0 6.169629 1.241853l13.145143-14.598374a16.672533 16.672533 0 0 1 12.550639-5.548704z" fill="#E04B10" p-id="3256"></path></svg>