<?xml version="1.0" standalone="no"?><!DOCTYPE svg PUBLIC "-//W3C//DTD SVG 1.1//EN" "http://www.w3.org/Graphics/SVG/1.1/DTD/svg11.dtd"><svg t="1699717639790" class="icon" viewBox="0 0 1024 1024" version="1.1" xmlns="http://www.w3.org/2000/svg" p-id="2744" xmlns:xlink="http://www.w3.org/1999/xlink" width="200" height="200"><path d="M292.32648 953.461733a32.528318 53.834901 60 1 0 93.244784-53.8349 32.528318 53.834901 60 1 0-93.244784 53.8349Z" fill="#EFD3EF" p-id="2745"></path><path d="M318.51853 972.880251h-1.177011c-14.552142-0.280878-25.707001-5.871682-31.391432-15.715779-11.181609-19.367189 3.343783-47.989969 33.063323-65.150261 13.602508-7.851202 28.328527-12.037618 41.556531-11.770115 14.565517 0.294253 25.707001 5.871682 31.391432 15.715779 11.181609 19.380564-3.330408 47.989969-33.049948 65.150261-13.201254 7.610449-27.472518 11.770115-40.392895 11.770115z m40.861024-77.910136c-10.338976 0-22.015465 3.450784-32.996447 9.803971-21.400209 12.371996-34.360711 33.437827-27.65977 45.007314 4.012539 7.021944 13.589133 8.23908 18.912435 8.346082 10.526228 0.160502 22.590596-3.263532 33.892581-9.790596 21.400209-12.385371 34.360711-33.437827 27.65977-45.02069-4.012539-7.008568-13.589133-8.23908-18.912435-8.346081z" fill="#C683C6" p-id="2746"></path><path d="M366.59149 990.352933a32.528318 53.834901 37.62 1 0 65.723982-85.282731 32.528318 53.834901 37.62 1 0-65.723982 85.282731Z" fill="#EFD3EF" p-id="2747"></path><path d="M380.45876 1002.198537a29.425287 29.425287 0 0 1-18.377429-5.965308c-9.001463-6.941693-13.054127-18.725183-11.408987-33.197074 1.484639-13.121003 7.583699-27.191641 17.173668-39.630512s21.640961-21.921839 33.946082-26.750262c13.575758-5.269801 26.014629-4.360293 35.016092 2.581401 17.722048 13.656008 15.180773 45.649321-5.764682 72.827586-9.589969 12.438871-21.640961 21.921839-33.946081 26.750261a46.170951 46.170951 0 0 1-16.638663 3.383908z m37.918496-94.134169a32.287565 32.287565 0 0 0-11.288611 2.380773c-9.844096 3.811912-19.648067 11.622989-27.619644 21.961965s-13.014002 21.801463-14.204389 32.287565c-0.601881 5.350052-0.655381 14.913271 5.764681 19.862069 6.420063 4.948798 15.702403 2.447649 20.664577 0.52163 9.844096-3.825287 19.648067-11.622989 27.619645-21.961965 15.113898-19.661442 19.126437-43.977429 8.493208-52.163009a15.060397 15.060397 0 0 0-9.429467-2.889028z" fill="#C683C6" p-id="2748"></path><path d="M439.616534 1010.159847a32.528318 53.834901 19.33 1 0 35.639621-101.600215 32.528318 53.834901 19.33 1 0-35.639621 101.600215Z" fill="#EFD3EF" p-id="2749"></path><path d="M446.46503 1018.716823a27.927273 27.927273 0 0 1-9.295716-1.578265c-21.105956-7.409822-28.743156-38.573877-17.38767-70.955068s36.794984-51.949007 57.914316-44.55256 28.743156 38.573877 17.38767 70.888192c-5.189551 14.819645-13.669383 27.60627-23.847858 36.019227-8.078579 6.727691-16.611912 10.178474-24.770742 10.178474z m22.015465-103.898014c-12.198119 0-27.485893 15.448276-34.77534 36.233229-8.198955 23.366353-4.293417 47.735841 8.346082 52.163009 7.650575 2.675026 15.675653-2.675026 19.781818-5.992058 8.145455-6.687565 15.006897-17.213793 19.327064-29.532289 8.198955-23.352978 4.293417-47.722466-8.346082-52.163009a13.147753 13.147753 0 0 0-4.320167-0.708882z" fill="#C683C6" p-id="2750"></path><path d="M675.396229 954.713303a53.834901 32.528318 30 1 0 32.528318-56.340699 53.834901 32.528318 30 1 0-32.528318 56.340699Z" fill="#EFD3EF" p-id="2751"></path><path d="M712.108499 972.880251c-12.893626 0-27.178265-4.159666-40.379519-11.78349-29.71954-17.160293-44.244932-45.729572-33.063323-65.150262s43.241797-21.105956 72.961337-4.012539c13.589133 7.851202 24.596865 18.551306 30.963428 30.107419 7.035319 12.759875 7.770951 25.198746 2.08652 35.042843s-16.825914 15.501776-31.391431 15.796029z m-41.061651-77.84326c-9.095089 0-16.411285 2.741902-19.607941 8.279205-6.687565 11.609613 6.232811 32.635319 27.65977 45.02069 11.301985 6.527064 23.366353 9.977847 33.892581 9.790596 5.350052-0.107001 14.873145-1.337513 18.912434-8.346082 4.012539-7.021944 0.347753-15.889655-2.220271-20.557576-5.095925-9.242215-14.124138-17.922675-25.412748-24.449738s-23.286102-9.737095-33.223825-9.737095z" fill="#C683C6" p-id="2752"></path><path d="M605.402258 967.653924a53.834901 32.528318 52.38 1 0 51.52984-39.711981 53.834901 32.528318 52.38 1 0-51.52984 39.711981Z" fill="#EFD3EF" p-id="2753"></path><path d="M650.181644 1002.198537a46.104075 46.104075 0 0 1-16.638662-3.383908c-12.30512-4.788297-24.369488-14.271264-33.959457-26.750261-20.945455-27.178265-23.473354-59.171578-5.764681-72.827586 9.014838-6.941693 21.400209-7.851202 35.016092-2.581401 12.30512 4.788297 24.369488 14.271264 33.946081 26.750262s15.689028 26.509509 17.187043 39.630512c1.645141 14.471891-2.420899 26.255381-11.422361 33.197074a29.425287 29.425287 0 0 1-18.364055 5.965308z m-37.985371-94.134169a15.060397 15.060397 0 0 0-9.362591 2.889028c-10.606479 8.18558-6.687565 32.555068 8.439707 52.163009 8.025078 10.338976 17.775549 18.136677 27.619645 21.961965 4.962173 1.926019 14.244514 4.427168 20.664577-0.52163 6.420063-4.948798 6.366562-14.565517 5.764681-19.862069-1.203762-10.539603-6.192685-21.948589-14.217764-32.287565S633.32898 914.257053 623.498259 910.445141a32.434692 32.434692 0 0 0-11.301986-2.380773z" fill="#C683C6" p-id="2754"></path><path d="M542.464994 970.164168a53.834901 32.528318 70.67 1 0 61.389247-21.534301 53.834901 32.528318 70.67 1 0-61.389247 21.534301Z" fill="#EFD3EF" p-id="2755"></path><path d="M584.228875 1018.716823c-8.15883 0-16.678788-3.437409-24.770742-10.111598-10.178474-8.412957-18.644932-21.199582-23.847858-36.019227s-6.580564-30.094044-3.878787-43.01442c2.982654-14.257889 10.539603-24.182236 21.266457-27.940648s22.817973-0.735632 34.053083 8.533333c10.111599 8.412957 18.578056 21.253083 23.780982 35.965727s6.567189 30.094044 3.865413 43.01442c-2.969279 14.257889-10.526228 24.168861-21.253083 27.940647a27.793521 27.793521 0 0 1-9.215465 1.631766z m-21.961964-103.911389a13.254754 13.254754 0 0 0-4.387043 0.735632c-7.650575 2.675026-10.619854 11.836991-11.716614 17.039916-2.153396 10.338976-0.963009 22.737722 3.357157 35.123093s11.181609 22.737722 19.327064 29.532289c4.106165 3.383908 12.131243 8.667085 19.781818 5.992058 7.650575-2.675026 10.619854-11.836991 11.703239-17.053291 2.166771-10.325601 0.976385-22.804598-3.343782-35.123093s-11.181609-22.737722-19.327064-29.518914c-3.397283-2.741902-9.282341-6.727691-15.461651-6.72769z" fill="#C683C6" p-id="2756"></path><path d="M481.84225 962.795402a53.834901 32.528318 90 1 0 65.056636 0 53.834901 32.528318 90 1 0-65.056636 0Z" fill="#EFD3EF" p-id="2757"></path><path d="M514.383943 1024c-22.376594 0-39.898015-26.884013-39.898014-61.204598s17.521421-61.204598 39.898014-61.204597 39.884639 26.884013 39.88464 61.204597-17.521421 61.204598-39.88464 61.204598z m0-107.669801c-13.375131 0-25.158621 21.707837-25.158621 46.465203s11.75674 46.465204 25.158621 46.465204 25.145246-21.721212 25.145246-46.465204-11.75674-46.465204-25.145246-46.465203z" fill="#C683C6" p-id="2758"></path><path d="M170.46921 687.147335a341.627586 264.025078 0 1 0 683.255172 0 341.627586 264.025078 0 1 0-683.255172 0Z" fill="#EFD3EF" p-id="2759"></path><path d="M512.110171 957.873354c-92.729781 0-179.975758-27.954023-245.661024-78.726019-66.206897-51.159875-102.667503-119.34629-102.667503-191.986624s36.460606-140.82675 102.667503-191.986625c65.685266-50.825496 152.931243-78.726019 245.661024-78.726019s179.962382 27.954023 245.661024 78.726019c66.193521 51.159875 102.654127 119.34629 102.654127 191.986625s-36.460606 140.82675-102.654127 191.986624c-65.698642 50.771996-152.944619 78.726019-245.661024 78.726019z m0-528.050157c-184.683804 0.02675-334.953396 115.440752-334.953396 257.337514s150.269592 257.337513 334.953396 257.337513 334.940021-115.440752 334.940021-257.337513S696.793975 429.849948 512.110171 429.849948z" fill="#C683C6" p-id="2760"></path><path d="M643.427203 321.912644H378.251864s84.891954 69.202926 33.625078 123.626332h197.925183c-51.266876-54.476907 33.625078-123.626332 33.625078-123.626332zM412.452073 435.333751s12.492372-14.324765 16.42466-31.592058" fill="#EFD3EF" p-id="2761"></path><path d="M609.641623 435.333751s-12.492372-14.324765-16.42466-31.592058" fill="#EFD3EF" p-id="2762"></path><path d="M421.239534 802.736552l5.933207-9.69697 90.153731 55.159039-5.933208 9.696969z" fill="#C683C6" p-id="2763"></path><path d="M506.876482 848.149133l90.153731-55.159039 5.933208 9.69697-90.153731 55.159038z" fill="#C683C6" p-id="2764"></path><path d="M342.660641 566.436782v196.881922" fill="#7FD65F" p-id="2765"></path><path d="M337.310589 566.436782h10.700104v196.881922h-10.700104z" fill="#326018" p-id="2766"></path><path d="M243.858551 665.238871h196.881923" fill="#7FD65F" p-id="2767"></path><path d="M243.858551 659.888819h196.881923v10.700105H243.858551z" fill="#326018" p-id="2768"></path><path d="M342.660641 665.238871m-74.780355 0a74.780355 74.780355 0 1 0 149.56071 0 74.780355 74.780355 0 1 0-149.56071 0Z" fill="#7FD65F" p-id="2769"></path><path d="M342.674016 745.382654a80.143783 80.143783 0 1 1 80.130408-80.130407 80.250784 80.250784 0 0 1-80.130408 80.130407z m0-149.574086a69.443678 69.443678 0 1 0 69.430303 69.443679 69.550679 69.550679 0 0 0-69.430303-69.443679z" fill="#326018" p-id="2770"></path><path d="M367.351132 639.47837m-20.838453 0a20.838454 20.838454 0 1 0 41.676907 0 20.838454 20.838454 0 1 0-41.676907 0Z" fill="#FFFFFF" p-id="2771"></path><path d="M676.062522 566.436782v196.881922" fill="#7FD65F" p-id="2772"></path><path d="M670.71247 566.436782h10.700104v196.881922h-10.700104z" fill="#326018" p-id="2773"></path><path d="M577.247057 665.238871h196.881923" fill="#7FD65F" p-id="2774"></path><path d="M577.247057 659.888819h196.881923v10.700105h-196.881923z" fill="#326018" p-id="2775"></path><path d="M676.062522 665.238871m-74.780355 0a74.780355 74.780355 0 1 0 149.56071 0 74.780355 74.780355 0 1 0-149.56071 0Z" fill="#7FD65F" p-id="2776"></path><path d="M676.062522 745.382654a80.143783 80.143783 0 1 1 80.130408-80.130407 80.250784 80.250784 0 0 1-80.130408 80.130407z m0-149.574086a69.443678 69.443678 0 1 0 69.430303 69.443679 69.550679 69.550679 0 0 0-69.430303-69.443679z" fill="#326018" p-id="2777"></path><path d="M700.739638 639.47837m-20.838453 0a20.838454 20.838454 0 1 0 41.676907 0 20.838454 20.838454 0 1 0-41.676907 0Z" fill="#FFFFFF" p-id="2778"></path><path d="M482.470882 291.136468a13.375131 13.375131 0 0 1-13.067503-10.566353c-8.025078-37.115987-30.535423-98.374086-57.111808-104.780773-6.085684-1.457889-14.231139-2.073145-18.471055 3.290282-4.440543 5.63093-5.269801 18.45768 2.875653 34.440961a13.375131 13.375131 0 0 1-23.794358 12.157994c-12.037618-23.687356-12.104493-47.882968-0.066875-63.157367 10.004598-12.679624 26.683386-17.320794 45.742947-12.733124 51.467503 12.385371 74.552978 113.68861 77.014002 125.177847a13.375131 13.375131 0 0 1-13.094253 16.170533zM600.58666 276.423824a12.746499 12.746499 0 0 1-2.822153-0.307628 13.375131 13.375131 0 0 1-10.2721-15.862904c2.461024-11.515987 25.546499-112.792476 77.000627-125.177848 19.072936-4.601045 35.738349 0 45.742947 12.733124 12.037618 15.274399 12.037618 39.47001 0 63.143992a13.375131 13.375131 0 0 1-23.834483-12.144619c8.145455-15.983281 7.316196-28.810031 2.889028-34.440961-4.239916-5.350052-12.385371-4.748171-18.48443-3.290282-26.576385 6.406688-49.126855 67.664786-57.111808 104.780773a13.375131 13.375131 0 0 1-13.107628 10.566353z" fill="#F9E073" p-id="2779"></path><path d="M445.408395 397.749634a20.062696 20.062696 0 0 1-18.912435-26.750261c0.615256-1.698642 15.274399-42.479415 49.113479-93.732915 18.484431-27.994148 35.136468-49.059979 51.240126-69.430303 12.82675-16.224033 24.944619-31.551933 36.781609-48.979729 24.998119-36.808359 30.575549-70.112435 15.675653-93.799791a54.450157 54.450157 0 0 0-53.594148-24.275862c-11.663114 1.738767-32.474817 9.282341-40.794149 40.125392-5.911808 21.881714 2.153396 34.467712 11.676489 38.94838 8.18558 3.852038 20.4372 3.02278 30.241171-10.84723a20.062696 20.062696 0 1 1 32.755695 23.165726c-19.567816 27.673145-51.74838 37.316614-80.063532 23.994984-24.957994-11.72999-44.940439-42.800418-33.357576-85.721212 10.2721-38.052247 37.784744-63.97325 73.563218-69.336677 36.460606-5.470428 74.044723 11.649739 93.518914 42.599791 11.181609 17.775549 15.929781 39.162382 13.722884 61.833229-2.354023 24.342738-12.519122 49.875862-30.18767 75.877116-12.559248 18.524556-25.171996 34.427586-38.466876 51.213375-15.568652 19.714943-31.685684 40.125392-49.22048 66.661651-30.963427 46.893208-44.659561 84.704702-44.793313 85.079206a20.062696 20.062696 0 0 1-18.899059 13.37513z" fill="#F2863D" p-id="2780"></path><path d="M382.358029 284.435528c1.926019-16.558412-7.088819-32.27419-21.627586-37.838245-19.313689-7.409822-51.454127-11.903866-100.875235 2.407524-61.070846 17.681923-84.022571 121.392685-92.59603 191.063741-3.450784 28.087774 23.486729 48.926228 46.933334 36.36698l139.743364-74.780356a35.403971 35.403971 0 0 0 17.949426-27.312016z" fill="#8095E0" p-id="2781"></path><path d="M199.640369 486.413375a36.86186 36.86186 0 0 1-20.958829-6.687565C165.828039 470.924974 159.073598 455.409822 161.066493 439.252665c9.790596-79.568652 34.574713-178.21024 97.063323-196.293417 52.163009-15.087147 85.774713-9.549843 104.834273-2.247022 17.38767 6.687565 27.860397 24.904493 25.586625 44.392058l-10.459352 89.907628a41.610031 41.610031 0 0 1-21.239707 32.100314l-139.70324 74.900731a37.075862 37.075862 0 0 1-17.508046 4.400418z m119.546918-240.511599c-15.501776 0-34.534587 2.420899-57.593312 9.095089-58.850575 17.053292-80.504911 123.746708-88.142111 185.834065a29.933542 29.933542 0 0 0 12.291745 28.662905 23.887983 23.887983 0 0 0 25.506374 1.444514l139.729989-74.780355a29.064159 29.064159 0 0 0 14.712644-22.537095l10.459352-89.907628c1.591641-13.602508-5.844932-26.750261-17.655172-31.297806-9.108464-3.490909-22.00209-6.513689-39.309509-6.513689z" fill="#5A6EBA" p-id="2782"></path><path d="M641.955939 282.723511c-1.979519-16.986416 7.235946-33.223824 22.175967-38.787879 19.380564-7.262696 51.360502-11.502612 100.233228 2.675026 60.522466 17.521421 83.607941 119.506792 92.355277 189.151097 3.638036 28.876907-23.968234 50.450993-48.15047 37.530617l-137.897597-73.803971a36.300104 36.300104 0 0 1-18.417554-28.020898z" fill="#8095E0" p-id="2783"></path><path d="M823.536712 483.270219a37.85162 37.85162 0 0 1-17.882549-4.560919l-137.897597-73.803971a42.452665 42.452665 0 0 1-21.681087-32.809195l-10.312225-88.677116c-2.300522-19.755068 8.70721-38.787879 26.188505-45.381818 18.992685-7.115569 52.484013-12.452247 104.138767 2.501149 62.087356 17.976176 86.938349 115.614629 96.822571 194.354023 2.08652 16.598537-4.801672 32.541693-17.976176 41.596656a37.624242 37.624242 0 0 1-21.400209 6.781191z m-175.388088-201.295715l10.325601 88.690491a29.987043 29.987043 0 0 0 15.167398 23.232602l137.964473 73.80397a24.596865 24.596865 0 0 0 26.322257-1.498014c9.362591-6.393312 14.164263-17.802299 12.652873-29.746291-7.71745-61.431975-29.425287-167.001881-87.901358-183.934796-48.377847-14.003762-79.073772-9.25559-96.300941-2.795402-12.171369 4.547544-19.821944 18.109927-18.176802 32.24744z" fill="#5A6EBA" p-id="2784"></path><path d="M381.127517 290.574713c2.741902-23.56698 16.772414-43.830303 36.91536-53.273146 22.737722-10.700104 58.328945-21.119331 110.465204-21.119331 36.112853 0 62.033856 9.362591 79.541902 19.300314 17.802299 10.178474 29.786416 29.238036 32.30094 50.825496l8.025079 69.149425c2.568025 22.05559-5.1093 44.05768-20.504076 58.783699l-77.027377 73.643469c-23.700731 22.657471-59.345455 22.430094-82.778683-0.54838l-74.646604-73.135214c-15.020272-14.712644-22.470219-36.460606-19.928945-58.221944z" fill="#8095E0" p-id="2785"></path><path d="M509.756148 510.394984a64.936259 64.936259 0 0 1-45.56907-19.019435l-74.633229-73.135215c-16.237409-15.90303-24.302612-39.403135-21.574086-62.863114l7.597075-65.444514 5.537304 0.642007-5.537304-0.642007c2.955904-25.412748 18.310554-47.468339 40.125391-57.673563 30.655799-14.36489 68.61442-21.654336 112.832602-21.654336 31.337931 0 59.024451 6.687565 82.297179 20.062696 19.233438 10.980982 32.354441 31.565308 35.082968 55.065412l8.025078 69.149426c2.768652 23.794357-5.523929 47.521839-22.189342 63.451619l-77.027377 73.643469a64.856008 64.856008 0 0 1-44.967189 18.417555z m18.725183-288.635318c-53.032393 0-88.048485 11.194984-108.097806 20.597701-18.297179 8.573459-31.23093 27.298642-33.745454 48.872727l-7.61045 65.431139c-2.340648 20.062696 4.507419 40.125392 18.297179 53.607524l74.673354 73.081713c21.266458 20.838454 53.500522 21.052456 75.021108 0.49488l77.027377-73.656844c14.150888-13.522257 21.186207-33.745455 18.818809-54.102404l-8.025079-69.149425c-2.327273-19.982445-13.375131-37.450366-29.532288-46.665831-21.587461-12.264995-47.428213-18.511181-76.8-18.51118z" fill="#5A6EBA" p-id="2786"></path></svg>