<?xml version="1.0" standalone="no"?><!DOCTYPE svg PUBLIC "-//W3C//DTD SVG 1.1//EN" "http://www.w3.org/Graphics/SVG/1.1/DTD/svg11.dtd"><svg t="1699717689120" class="icon" viewBox="0 0 1024 1024" version="1.1" xmlns="http://www.w3.org/2000/svg" p-id="4470" xmlns:xlink="http://www.w3.org/1999/xlink" width="200" height="200"><path d="M512 959.948464a448.06626 448.06626 0 0 1-174.367422-860.695579 448.06626 448.06626 0 0 1 348.734844 825.49423 445.140995 445.140995 0 0 1-174.367422 35.201349z m0-876.27409c-236.180835 0-428.325626 192.144791-428.325626 428.364891s192.144791 428.276544 428.325626 428.276545 428.325626-192.144791 428.325626-428.276545S748.14157 83.674374 512 83.674374z" fill="#E46022" p-id="4471"></path><path d="M512 910.179685a398.287664 398.287664 0 0 1-154.989992-765.074735 398.287664 398.287664 0 0 1 309.979984 733.780283 395.597991 395.597991 0 0 1-154.989992 31.294452z m0-786.552859c-214.14318 0-388.373174 174.220177-388.373174 388.412439s174.229993 388.324092 388.373174 388.324092 388.363357-174.220177 388.363357-388.324092-174.220177-388.412439-388.363357-388.412439z" fill="#E46022" p-id="4472"></path><path d="M512 408.810767a101.883661 101.883661 0 1 1-101.883661 101.883661 102.001457 102.001457 0 0 1 101.883661-101.883661m0-58.897964a160.781625 160.781625 0 1 0 160.781625 160.781625 160.781625 160.781625 0 0 0-160.781625-160.781625z" fill="#E46022" p-id="4473"></path><path d="M512 510.694428m-49.101269 0a49.101269 49.101269 0 1 0 98.202538 0 49.101269 49.101269 0 1 0-98.202538 0Z" fill="#E46022" p-id="4474"></path><path d="M512 159.161931l49.101269 144.427624H462.898731l49.101269-144.427624zM298.494881 300.428697l95.385252 25.934737-69.450515 69.450516-25.934737-95.385253zM301.734269 724.199548l25.934737-95.385253 69.450515 69.440699-95.385252 25.944554zM725.495303 720.950343l-95.375436-25.934737 69.440699-69.440699 25.934737 95.375436zM722.255915 297.189309l-25.934737 95.385253-69.440699-69.450516 95.375436-25.934737zM160.467503 510.694428l144.427623-49.101269v98.202539l-144.427623-49.10127zM512 862.21711l-49.101269-144.427624H561.101269l-49.101269 144.427624zM863.522681 510.694428l-144.427624 49.10127V461.593159l144.427624 49.101269z" fill="#E46022" p-id="4475"></path></svg>