<?xml version="1.0" standalone="no"?><!DOCTYPE svg PUBLIC "-//W3C//DTD SVG 1.1//EN" "http://www.w3.org/Graphics/SVG/1.1/DTD/svg11.dtd"><svg t="1699717646297" class="icon" viewBox="0 0 1024 1024" version="1.1" xmlns="http://www.w3.org/2000/svg" p-id="2945" xmlns:xlink="http://www.w3.org/1999/xlink" width="200" height="200"><path d="M187.703248 476.814387s-71.490674 45.281625-112.924199 97.573784c-52.222195 65.907432-59.554572 176.047008 71.238798 114.323509 86.897061-40.99974 110.2935-162.795556 110.293499-162.795557z" fill="#F6CCDA" p-id="2946"></path><path d="M81.803578 713.857254c-20.024105 0-31.778297-7.654218-38.662896-16.343924-23.452411-29.539403-5.121469-88.016507 26.153077-127.463015 41.685402-52.614001 111.706801-97.27993 114.659342-99.155004l3.98803-2.518755 76.094398 54.461089-0.853578 4.407822a315.250222 315.250222 0 0 1-23.102584 67.670561c-22.556854 48.010276-54.069282 82.657156-91.067 100.120526-29.119611 13.74121-50.906845 18.8207-67.208789 18.8207z m105.71776-228.563058c-15.392394 10.228945-72.554148 49.633474-107.257 93.445825-30.784788 38.788833-42.734883 89.20592-26.16707 110.083603 13.223466 16.665765 44.777873 14.384892 88.940051-6.436819 73.547657-34.702852 100.344416-131.814865 105.437899-153.476161z" fill="#D195AC" p-id="2947"></path><path d="M833.889941 476.814387s71.504667 45.281625 112.9242 97.573784c52.222195 65.907432 59.568565 176.047008-71.238798 114.323509-86.883068-40.99974-110.2935-162.795556-110.2935-162.795557z" fill="#F6CCDA" p-id="2948"></path><path d="M939.719646 713.857254c-16.301945 0-38.089179-5.07949-67.16681-18.8207-37.011711-17.463371-68.566119-52.082264-91.067-100.120526a316.243731 316.243731 0 0 1-23.158556-67.670561l-0.839585-4.407822 76.080405-54.461089 3.988029 2.518755c2.966534 1.875073 72.973941 46.541002 114.659343 99.155004 31.274546 39.446508 49.605488 97.951598 26.153076 127.463015-6.870605 8.689706-18.624797 16.343924-38.648902 16.343924zM773.048006 528.910644c5.135462 21.689282 31.890242 118.773309 105.437898 153.476161 44.134192 20.821711 75.716585 23.102584 88.940052 6.436819 16.567813-20.877683 4.589732-71.29477-26.153077-110.083603-34.716845-43.812351-91.864606-83.216879-107.270993-93.445825z" fill="#D195AC" p-id="2949"></path><path d="M818.497547 660.86544c-15.322429-131.674934 28.461936-197.302505-15.392394-363.526367-52.208202-198.14209-278.308476-200.101122-292.231596-200.017164-14.916629-0.125938-258.14444 1.875073-310.352643 199.975184-43.798357 166.279834 4.743656 222.937837-12.775687 365.471406-14.958608 121.739843-14.87465 106.557346-39.782341 165.118408 0 0 4.925566 34.395004 70.637095 30.043155 0 0 44.889818 39.180639 95.264926 50.822886 33.835281 7.808142 87.064978-9.193457 87.064977-9.193457s55.426611 23.368453 99.994589 24.026128h1.847087c44.567977-0.657675 99.994589-24.026128 99.994589-24.026128s53.173725 17.001599 87.064977 9.193457c50.375108-11.614261 95.278919-50.822886 95.278919-50.822886 65.767502 4.35185 70.637095-30.043154 70.637096-30.043155-24.767761-74.14936-23.032619-45.239645-37.249594-167.021467z" fill="#F6CCDA" p-id="2950"></path><path d="M502.77156 930.582162h-8.84363v-0.279862c-39.054701-2.364831-82.671149-19.044589-93.33388-23.340467-11.194468 3.330354-56.853906 15.854166-88.296369 8.605748-45.701417-10.550786-86.225393-42.329083-96.090518-50.501046-68.678063 3.526258-74.932973-34.548928-75.170855-36.200112l-0.279861-1.931045 0.769619-1.805108c3.638202-8.535782 6.716681-15.462359 9.43134-21.563345 15.560311-34.982714 17.183509-38.606923 29.847251-141.610025 7.248418-59.022834 2.980527-103.702756-1.147433-146.927397-5.723172-59.848426-11.642247-121.739843 14.10503-219.467552 12.285929-46.638954 35.976223-86.407303 70.441192-118.213586 27.692316-25.57936 62.381175-46.07923 103.087061-60.925894 70.413206-25.691305 136.334632-26.111097 143.681001-26.097104 6.716681 0 68.202298 0.405799 134.333621 26.153076 38.173137 14.87465 70.832999 35.402506 97.084026 60.99586 32.589896 31.79229 55.342653 71.51866 67.614589 118.087648 26.474918 100.512333 21.255497 165.39827 16.203993 228.087293-3.470285 43.210648-6.75866 84.042471-0.671668 136.348624 10.88662 93.51579 12.341901 97.447847 23.634321 128.064718 3.414313 9.235436 7.654218 20.72376 13.265445 37.529455l0.517745 1.567226-0.22389 1.637191c-0.237882 1.567226-5.975047 36.382022-66.453163 36.382022q-4.197926 0-8.731685-0.223889c-9.865125 8.171962-50.375108 39.950259-96.090518 50.501045-31.442463 7.248418-77.101901-5.275393-88.282376-8.605747-10.676724 4.295877-54.293172 20.989628-93.347873 23.340466v0.265869z m-0.979516-13.993086h0.881565c42.650924-0.629689 96.832151-23.242515 97.377881-23.480397l2.378825-0.993509 2.462783 0.783612c0.517744 0.153924 51.774416 16.315938 83.370803 9.039534 48.010276-11.068531 91.808634-48.975799 92.242419-49.283647l2.182921-1.90306 2.882576 0.195903c50.459066 3.344347 61.009853-17.379412 62.884926-22.780743-5.219421-15.560311-9.221443-26.390959-12.467839-35.178617-11.810164-32.002186-13.321417-36.116154-24.403941-131.29712-6.254909-53.663483-2.798617-97.09802 0.615696-139.09127 4.953552-61.569576 10.089015-125.252108-15.784201-223.455581-21.185531-80.404269-73.757553-137.468071-156.246792-169.610189-63.654546-24.80974-122.649394-25.187554-129.198158-25.187554-6.996543 0-70.763033 0.405799-138.881373 25.187554-88.156438 32.184097-143.639022 89.20592-164.796567 169.554216-25.117588 95.334891-19.59032 153.252272-13.713224 214.569973 4.197926 43.966274 8.549775 89.429809 1.105454 149.963896-12.915618 105.074079-14.958608 109.691797-30.938712 145.528089-2.462783 5.597234-5.233414 11.726206-8.395851 19.18452 2.028997 5.891089 12.593777 25.817243 62.81496 22.486888l2.882576-0.195903 2.182921 1.90306c0.433786 0.377813 44.232143 38.215116 92.242419 49.283647 31.526422 7.276404 82.839066-8.885609 83.35681-9.039533l2.462783-0.783613 2.378825 0.993509c0.54573 0.237882 54.74095 22.850709 97.391875 23.480397h0.755626z" fill="#D195AC" p-id="2951"></path><path d="M347.476298 353.969089m-79.578677 0a79.578677 79.578677 0 1 0 159.157354 0 79.578677 79.578677 0 1 0-159.157354 0Z" fill="#6B392A" p-id="2952"></path><path d="M373.181596 324.793506m-21.801227 0a21.801227 21.801227 0 1 0 43.602454 0 21.801227 21.801227 0 1 0-43.602454 0Z" fill="#FFFFFF" p-id="2953"></path><path d="M666.546632 352.331898m-79.578677 0a79.578677 79.578677 0 1 0 159.157354 0 79.578677 79.578677 0 1 0-159.157354 0Z" fill="#6B392A" p-id="2954"></path><path d="M692.265923 323.156315m-21.801227 0a21.801227 21.801227 0 1 0 43.602454 0 21.801227 21.801227 0 1 0-43.602454 0Z" fill="#FFFFFF" p-id="2955"></path><path d="M457.853756 536.033124c-10.802662 0-18.694762-2.798617-24.278003-6.268902-15.770207-9.641236-23.928176-29.609369-24.264011-59.386655l-0.069965-6.996542 13.993085-0.153924 0.069966 6.996542c0.279862 24.62783 6.184944 40.649913 17.575315 47.576491 8.66172 5.303379 25.607346 8.325886 57.133768-7.374356 1.119447-0.559723 1.72115-0.867571 2.280873-1.077468l6.492792-2.616707 5.2614 13.055549-6.43682 2.602714c-0.265869 0.111945-0.713647 0.335834-1.31535 0.643682-19.464382 9.61325-34.674866 12.999576-46.44305 12.999576z" fill="#D195AC" p-id="2956"></path><path d="M556.253133 535.69729c-21.507372 0-42.469014-10.117001-48.360104-13.195479l-6.142964-2.308859 4.925566-13.097528 7.444321 2.868582c1.175419 0.615696 22.388937 11.684226 42.329084 11.684226a36.857787 36.857787 0 0 0 18.974624-4.659697c11.88013-7.066508 18.05108-22.808729 18.316949-46.792878l0.083958-6.996542 13.993086 0.153923v6.996543c-0.321841 29.189576-8.787658 48.975799-25.187554 58.659014a50.836879 50.836879 0 0 1-26.376966 6.688695z" fill="#D195AC" p-id="2957"></path></svg>