<?xml version="1.0" standalone="no"?><!DOCTYPE svg PUBLIC "-//W3C//DTD SVG 1.1//EN" "http://www.w3.org/Graphics/SVG/1.1/DTD/svg11.dtd"><svg t="1699717668334" class="icon" viewBox="0 0 1024 1024" version="1.1" xmlns="http://www.w3.org/2000/svg" p-id="3627" xmlns:xlink="http://www.w3.org/1999/xlink" width="200" height="200"><path d="M240.173425 293.200119a86.572675 105.690207 62.93 1 0 188.223944-96.194731 86.572675 105.690207 62.93 1 0-188.223944 96.194731Z" fill="#C4CEA8" p-id="3628"></path><path d="M318.079566 342.582503a112.412136 112.412136 0 0 1-23.873984-2.528913c-27.175984-5.896429-48.481746-21.463-59.868406-43.843223s-11.59631-48.730707-0.458611-74.203278c10.928048-25.027064 31.539342-46.26731 58.020858-59.802889 55.125056-28.158722 118.963723-13.876262 142.339787 31.853817 23.36296 45.73008-2.463397 105.847445-57.57535 134.006168a129.236612 129.236612 0 0 1-58.584294 14.518318z m32.495873-181.76724a116.303779 116.303779 0 0 0-52.700968 13.103175c-23.795365 12.159746-42.270842 31.106937-51.993398 53.36923-9.539111 21.816786-9.486698 44.183905 0.117929 63.000064s27.726318 31.958643 50.984453 37.003366c23.742953 5.162651 49.923096 1.310317 73.718461-10.862532 48.678294-24.896032 71.936429-77.072874 51.862365-116.369295-12.945937-25.367746-40.790183-39.244008-71.988842-39.244008z" fill="#8F9B6B" p-id="3629"></path><path d="M684.352608 306.509463m-82.445175 0a82.445175 82.445175 0 1 0 164.890351 0 82.445175 82.445175 0 1 0-164.890351 0Z" fill="#C4CEA8" p-id="3630"></path><path d="M684.457434 395.558638a89.560199 89.560199 0 0 1-27.516667-4.363357 89.009866 89.009866 0 1 1 106.659842-125.187731 89.101588 89.101588 0 0 1-79.156278 129.551088z m-0.183445-164.982073a75.998413 75.998413 0 1 0 67.664795 41.392929 76.077032 76.077032 0 0 0-67.664795-41.392929z" fill="#8F9B6B" p-id="3631"></path><path d="M563.357893 237.128153m-59.357381 0a59.357381 59.357381 0 1 0 118.714763 0 59.357381 59.357381 0 1 0-118.714763 0Z" fill="#C4CEA8" p-id="3632"></path><path d="M563.436512 303.076431a65.922072 65.922072 0 0 1-30.058682-124.663604 65.908969 65.908969 0 0 1 88.682286 28.695952A65.961381 65.961381 0 0 1 563.436512 303.037121z m-0.131031-118.767176a52.832 52.832 0 1 0 47.079706 28.826985 52.897516 52.897516 0 0 0-47.079706-28.826985z" fill="#8F9B6B" p-id="3633"></path><path d="M987.245595 706.130085c-2.738564-21.895405-34.225492-55.033334-125.253247-107.446033a96.413159 96.413159 0 0 1-41.039143-46.51627c-43.161857-103.855763-85.458905-237.167462-142.536335-279.307272-62.973858-46.476961-166.410319-47.171429-166.410318-47.171429s-103.449564 0.746881-166.410319 47.171429c-57.090532 42.13981-99.38758 175.477716-142.536335 279.320375a96.37385 96.37385 0 0 1-40.98673 46.51627c-91.027755 52.412699-122.50158 85.537524-125.240144 107.446033-3.000627 23.991913 91.447056 53.971977 91.447056 53.971977s-41.930159 44.970096 11.989405 64.467619 166.410319 4.494389 218.888534 17.990659 95.941445 28.578024 148.41966 27.084262c52.412699 1.493762 104.930223-13.601095 157.408437-27.084262s164.903454 1.493762 218.823018-17.990659 11.989405-64.46762 11.989405-64.467619 94.395271-29.993167 91.447056-53.98508z" fill="#C4CEA8" p-id="3634"></path><path d="M514.718909 876.301015c-2.410984 0-4.808865 0-7.206746-0.104826-44.183905 1.231698-82.615517-9.172222-123.313977-20.178889-8.648095-2.345468-17.597564-4.769556-26.74358-7.115024-22.996072-5.909532-58.296024-6.171595-95.653175-6.446762-45.861111-0.340683-93.242191-0.694468-123.811898-11.727341-17.479635-6.328833-27.896659-15.959667-30.949699-28.682849-3.603373-14.937619 4.271635-29.914548 10.325302-38.680572-9.0805-3.157865-23.873984-8.595683-38.680572-15.278302-34.71031-15.72381-50.093437-29.272492-48.403127-42.768762 3.524754-28.198032 44.341143-63.877977 128.476628-112.294207a90.411905 90.411905 0 0 0 38.26127-43.358405c8.477754-20.414746 17.125849-42.467389 25.485675-63.799358 35.378572-90.123636 71.85781-183.313414 119.238889-218.272684 63.943493-47.171429 165.938604-48.481746 170.249549-48.481747s106.410882 1.310317 170.341272 48.481747c47.34177 34.95927 83.860318 128.149049 119.238889 218.272684 8.359825 21.331968 17.034127 43.384611 25.485675 63.799358a90.411905 90.411905 0 0 0 38.274374 43.358405c84.122382 48.481746 124.951874 84.096175 128.476627 112.294207 1.69031 13.49627-13.692818 27.084262-48.403127 42.768762-14.819691 6.682619-29.613175 12.120437-38.680572 15.278302 6.040564 8.766024 13.928675 23.742953 10.325302 38.680572-3.066143 12.723183-13.483167 22.367119-30.962802 28.682849-30.569707 11.032873-77.963889 11.386659-123.811898 11.727341-37.370254 0.275167-72.670207 0.53723-95.653175 6.446762l-13.850056 3.59027c-45.19285 11.714238-91.70912 23.808468-138.055048 23.808469z m-2.790976-644.099656c-0.917222 0-101.995112 1.310317-162.479367 45.93973-44.314937 32.757937-80.139016 124.113271-114.796913 212.507288-8.386032 21.384381-17.034127 43.515643-25.577397 64.048318a103.659215 103.659215 0 0 1-43.83012 49.687238c-97.251763 55.950556-120.02508 86.651294-122.016763 102.558549-0.471714 3.786817 7.573635 14.177635 40.698461 29.154563a483.245083 483.245083 0 0 0 46.228 17.754802l9.879794 3.144762-7.062611 7.573635c-0.170341 0.183444-17.034127 18.645818-13.24731 34.42204 1.991683 8.163278 9.61773 14.701762 22.668493 19.405802 28.460095 10.285992 74.688096 10.626675 119.461643 10.954254 38.195754 0.275167 74.268794 0.550333 98.824144 6.85296 9.172222 2.371675 18.213413 4.808865 26.900818 7.154334 41.523961 11.242524 77.308731 20.96508 119.697501 19.733381h0.379992c46.922469 1.310317 95.102842-11.177008 141.710834-23.284342l13.915572-3.616476c24.555349-6.302627 60.641493-6.551587 98.837246-6.85296 44.734238-0.327579 90.988445-0.668262 119.448541-10.954254 13.103175-4.70404 20.689913-11.242524 22.668492-19.405802 3.83923-15.72381-13.103175-34.238596-13.247309-34.435143l-7.010199-7.573635 9.827381-3.131659a481.764424 481.764424 0 0 0 46.228-17.754802c33.137929-14.976929 41.183278-25.367746 40.711564-29.154564-1.991683-15.907254-24.778103-46.607992-122.016763-102.558548a103.51508 103.51508 0 0 1-43.830119-49.687238c-8.530167-20.532675-17.204468-42.650834-25.5905-64.048318-34.644794-88.394017-70.468874-179.801763-114.783811-212.507288-60.484254-44.681826-161.562144-45.926627-162.597294-45.926627z" fill="#8F9B6B" p-id="3635"></path><path d="M295.529002 489.403575a67.507556 65.974485 0 1 0 135.015112 0 67.507556 65.974485 0 1 0-135.015112 0Z" fill="#42393B" p-id="3636"></path><path d="M320.687098 471.085337a17.08654 16.706548 0 1 0 34.173079 0 17.08654 16.706548 0 1 0-34.173079 0Z" fill="#FFFFFF" p-id="3637"></path><path d="M607.305941 487.778782a67.507556 65.974485 0 1 0 135.015112 0 67.507556 65.974485 0 1 0-135.015112 0Z" fill="#42393B" p-id="3638"></path><path d="M632.450933 469.460543a17.08654 16.706548 0 1 0 34.17308 0 17.08654 16.706548 0 1 0-34.17308 0Z" fill="#FFFFFF" p-id="3639"></path><path d="M518.925028 616.438854m-68.739255 0a68.739255 68.739255 0 1 0 137.478509 0 68.739255 68.739255 0 1 0-137.478509 0Z" fill="#EFDB94" p-id="3640"></path><path d="M518.925028 691.729696a75.290842 75.290842 0 1 1 75.303945-75.290842 75.369461 75.369461 0 0 1-75.303945 75.290842z m0-137.478509a62.187667 62.187667 0 1 0 62.20077 62.187667 62.253183 62.253183 0 0 0-62.20077-62.187667z" fill="#C49D20" p-id="3641"></path><path d="M518.925028 616.438854m-39.637104 0a39.637103 39.637103 0 1 0 79.274207 0 39.637103 39.637103 0 1 0-79.274207 0Z" fill="#EFDB94" p-id="3642"></path><path d="M518.925028 662.627545a46.188691 46.188691 0 1 1 46.201794-46.188691 46.241104 46.241104 0 0 1-46.201794 46.188691z m0-79.274207a33.085516 33.085516 0 1 0 33.098619 33.085516 33.124826 33.124826 0 0 0-33.098619-33.137929z" fill="#C49D20" p-id="3643"></path><path d="M255.262946 599.509552a34.592381 16.929302 0 1 0 69.184763 0 34.592381 16.929302 0 1 0-69.184763 0Z" fill="#EDEBE4" p-id="3644"></path><path d="M713.95268 599.509552a34.592381 16.929302 0 1 0 69.184763 0 34.592381 16.929302 0 1 0-69.184763 0Z" fill="#EDEBE4" p-id="3645"></path></svg>