<?xml version="1.0" standalone="no"?><!DOCTYPE svg PUBLIC "-//W3C//DTD SVG 1.1//EN" "http://www.w3.org/Graphics/SVG/1.1/DTD/svg11.dtd"><svg t="1699717488526" class="icon" viewBox="0 0 1024 1024" version="1.1" xmlns="http://www.w3.org/2000/svg" p-id="4084" xmlns:xlink="http://www.w3.org/1999/xlink" width="200" height="200"><path d="M816.601233 684.439173c-3.921575-54.150317-1.2529-45.104383-13.067742-98.540547-29.480726-133.9099-203.182715-174.153033-291.574776-174.153033-91.048208 0-262.081521 40.193017-291.574776 174.153033-11.764726 53.436164-9.146166 44.39023-13.067741 98.540547s-40.305777 60.765627-26.148013 155.73541c21.299292 142.467204 300.858761 177.523333 330.16408 177.523332a6.97865 6.97865 0 0 0 1.2529 0c29.731306 0 308.927434-35.081186 330.164081-177.523332 14.170294-94.969783-22.226437-101.585093-26.148013-155.73541z" fill="#C8A2A1" p-id="4085"></path><path d="M512.171708 1024h-1.039907c-15.423193-0.075174-92.451455-8.670065-169.968348-35.682578-44.177237-15.410664-80.323388-34.028751-107.436134-55.340572-33.828287-26.636644-53.636628-57.533146-58.748458-91.850064-9.146166-61.254257 2.593502-87.828256 12.942452-111.282535 6.038976-13.706721 11.764726-26.661702 13.142916-45.818535 0.764269-10.574472 1.2529-18.793493 1.703943-25.43386 1.754059-27.664021 1.941994-30.558219 11.501618-73.996246 13.34338-60.590221 56.969341-109.553534 126.17951-141.577645 74.948449-34.705317 150.222652-37.41158 171.509415-37.41158 43.162388 0 110.605969 9.835261 170.494566 37.41158 69.899264 32.199518 113.888566 81.162831 127.194359 141.577645 9.572152 43.438026 9.747558 46.357282 11.501618 73.996246 0.413457 6.615309 0.939675 14.859388 1.703943 25.43386 1.390718 19.156834 7.10394 32.111815 13.155445 45.818535 10.34895 23.454279 22.076089 50.028278 12.942452 111.282535-5.11183 34.316918-24.870055 65.21342-58.698342 91.850064-27.075159 21.299292-63.196252 39.929908-107.335902 55.340572-77.040791 26.824579-153.805945 35.494643-169.868116 35.644991z m-0.664037-12.528995h1.077494c13.957301 0 90.985563-8.770297 166.197121-34.993484 66.077921-23.053351 147.090403-65.564232 157.777636-137.192497 8.594891-57.633378-1.879349-81.438469-12.015306-104.379059-6.264498-14.082591-12.641756-28.653812-14.182823-49.978161-0.776798-10.637117-1.2529-18.906254-1.716472-25.546621-1.729001-27.363325-1.86682-29.593487-11.276096-72.091839-15.71136-71.352628-74.046361-111.670934-120.20318-132.932638-58.046835-26.736876-123.423131-36.258912-165.257446-36.258913-99.768389 0-258.097301 45.104383-285.448097 169.141435-9.359159 42.498352-9.496978 44.728513-11.276096 72.091839-0.413457 6.652896-0.939675 14.922033-1.703943 25.546621-1.553595 21.299292-7.98097 35.895571-14.195351 49.978161-10.123428 22.965648-20.610197 46.708094-12.002778 104.379059 10.674704 71.615736 91.77489 114.139146 157.865339 137.192497 67.481168 23.529453 136.252822 32.988844 159.782276 34.705317v-0.075174z" fill="#9B7373" p-id="4086"></path><path d="M258.722665 685.641956a82.603665 74.497405 90 1 0 148.99481 0 82.603665 74.497405 90 1 0-148.99481 0Z" fill="#1E599F" p-id="4087"></path><path d="M353.065998 659.832226m-22.965648 0a22.965648 22.965648 0 1 0 45.931297 0 22.965648 22.965648 0 1 0-45.931297 0Z" fill="#FFFFFF" p-id="4088"></path><path d="M616.199955 685.641956a82.603665 74.497405 90 1 0 148.994811 0 82.603665 74.497405 90 1 0-148.994811 0Z" fill="#1E599F" p-id="4089"></path><path d="M670.863961 659.832226m-22.965648 0a22.965648 22.965648 0 1 0 45.931296 0 22.965648 22.965648 0 1 0-45.931296 0Z" fill="#FFFFFF" p-id="4090"></path><path d="M324.938404 842.717969s3.595822 51.36888 17.640825 51.644518 20.635255-30.570748 20.635255-30.570748z" fill="#FFFFFF" p-id="4091"></path><path d="M342.81728 897.494736h-0.300696c-7.592571-0.175406-13.180503-9.484449-17.102078-28.440819a225.246275 225.246275 0 0 1-3.545706-26.110426l-0.400927-5.73828 45.25473 24.982816-0.488631 2.280277c-0.714153 3.3703-7.454752 33.026431-23.416692 33.026432z m-14.270525-49.201364c2.154987 21.512285 7.767977 42.786519 14.107648 42.936866h0.150348c8.444543 0 14.58375-17.239897 16.776325-25.847317z" fill="#9B7373" p-id="4092"></path><path d="M370.368541 868.540228s2.856611 36.53455 14.019945 36.78513 16.412984-24.343838 16.412984-24.343838z" fill="#FFFFFF" p-id="4093"></path><path d="M384.576421 908.470136h-0.263109c-12.980039-0.300696-16.287694-30.432929-17.07702-39.666799l-0.388399-5.011598 37.511812 15.410664-0.538747 2.505799c-0.588863 2.731321-6.051505 26.761934-19.244537 26.761934z m-10.574472-35.081187c1.754059 14.621337 6.001389 28.666341 10.461711 28.816689h0.050116c5.73828 0 10.486769-11.702081 12.528995-19.294653z" fill="#9B7373" p-id="4094"></path><path d="M511.783309 910.449717a5.663106 5.663106 0 0 1-0.927145-0.075174c-34.04128-5.011598-146.1382-34.392092-152.979032-38.388841-1.2529-0.75174-4.322503-2.919256-10.524355-7.36705-8.018557-5.750809-26.461238-18.968899-31.009263-21.023653-9.860319-0.313225-24.870055-0.526218-41.671438 0.087702a13.180503 13.180503 0 0 1-9.446863-3.583292 12.040364 12.040364 0 0 1-3.758698-8.657536 54.025027 54.025027 0 0 1 20.159153-42.999511 6.264498 6.264498 0 0 1 7.329462 10.148486 41.496032 41.496032 0 0 0-14.95962 32.575387 0.425986 0.425986 0 0 0 0.225522 0c17.603238-0.651508 33.277011-0.400928 43.325265-0.075174 3.696054 0.12529 9.020877 3.207423 37.110884 23.341518 4.046865 2.906727 8.219021 5.888628 9.384217 6.640368 7.35452 3.057075 111.908985 31.460307 148.656528 36.91042a6.264498 6.264498 0 0 1-0.902088 12.46635z m-195.828194-67.055182z" fill="#9B7373" p-id="4095"></path><path d="M698.991555 842.717969s-3.595822 51.36888-17.653354 51.644518-20.585139-30.570748-20.585139-30.570748z" fill="#FFFFFF" p-id="4096"></path><path d="M681.112679 897.494736c-15.974469 0-22.702539-29.656132-23.429221-33.05149l-0.476102-2.280277 45.304847-24.957758-0.400928 5.73828a222.176671 222.176671 0 0 1-3.608351 26.110426c-3.909046 18.95637-9.534565 28.215297-17.051962 28.440819z m-16.776325-32.111815c2.205103 8.60742 8.35684 25.847317 16.788854 25.847317h0.137819c6.352201-0.150348 11.96519-21.424582 14.107648-42.936866z" fill="#9B7373" p-id="4097"></path><path d="M653.561419 868.540228s-2.856611 36.53455-14.032475 36.78513-16.362868-24.343838-16.362868-24.343838z" fill="#FFFFFF" p-id="4098"></path><path d="M639.353538 908.470136c-13.205561 0-18.668203-24.030613-19.244537-26.786992l-0.538746-2.505799 37.511811-15.410664-0.400928 5.011598c-0.726682 9.233869-4.084452 39.366103-17.07702 39.666799z m-12.528995-25.559151c2.029697 7.592571 6.790715 19.294653 12.528995 19.294653h0.087703c4.460322-0.112761 8.770297-14.157765 10.47424-28.816689z" fill="#9B7373" p-id="4099"></path><path d="M512.986093 910.449717a6.264498 6.264498 0 0 1-0.914617-12.46635c36.421789-5.399997 140.500152-33.828287 147.842143-36.91042 1.152668-0.739211 5.337352-3.758699 9.384217-6.640368 28.102536-20.134095 33.41483-23.216228 37.123413-23.341518 10.023196-0.325754 25.709498-0.576334 43.325265 0.075174a0.275638 0.275638 0 0 0 0.212993 0 41.408329 41.408329 0 0 0-14.95962-32.575387 6.264498 6.264498 0 0 1 7.341991-10.148486 54.075143 54.075143 0 0 1 20.146625 42.999511 11.990248 11.990248 0 0 1-3.758699 8.657536 13.080271 13.080271 0 0 1-9.434333 3.583292c-16.801383-0.613921-31.811119-0.400928-41.683967-0.087702-4.548025 2.054755-22.990706 15.272845-30.996734 21.023653-6.264498 4.447793-9.246398 6.615309-10.524356 7.36705-6.903476 4.021807-118.436591 33.402301-152.139589 38.388841a5.901157 5.901157 0 0 1-0.964732 0.075174z m194.988752-67.055182zM628.829182 765.602004a6.264498 6.264498 0 0 1-3.232481-0.902088c-49.138719-29.656132-102.274188-39.541509-157.965571-29.380494-41.77167 7.617629-69.335459 24.281193-69.623626 24.456599a6.268256 6.268256 0 0 1-6.552664-10.687233c1.177726-0.726682 29.493255-17.891405 73.394853-25.997665 40.531299-7.517397 102.437065-8.206492 167.199441 30.883973a6.264498 6.264498 0 0 1-3.24501 11.626908z" fill="#9B7373" p-id="4100"></path><path d="M494.368006 539.140416c0.413457-18.229688-1.027378-57.73361-17.95405-94.468624-19.294653-41.859373-53.699273-55.766558-56.380478-90.947976a10.023196 10.023196 0 0 1 16.550802-8.507187c5.888628 5.011598 13.067742 10.286305 20.472378 13.443611a10.023196 10.023196 0 0 0 13.907185-7.655216c2.806495-18.517855 5.976331-57.633378-10.09837-88.955865-21.863097-42.598584-58.209712-38.614363-45.64313-119.250976 8.770297-56.380478 9.22134-61.392076 10.749878-61.279316 8.632478 1.74153 19.545232 34.655201 32.124344 55.403217 5.136888 8.494659 18.20463 5.224591 18.630616-4.685844 1.553595-36.334086 11.125748-83.29276 34.354504-120.979978a10.023196 10.023196 0 0 1 18.593029 4.710902c1.2529 22.639894 4.73596 53.761918 13.944772 74.221768a10.023196 10.023196 0 0 0 17.841289 0.964732c0.476102-0.789327 0.939675-1.61624 1.415777-2.505799a10.023196 10.023196 0 0 1 18.69326 3.307655c7.166585 44.728513 14.383286 123.485776-8.093731 188.586435-3.257539 9.434333 7.830622 17.214839 15.723889 11.113219l0.651508-0.50116a10.023196 10.023196 0 0 1 16.112288 9.634798c-8.645007 49.163777-28.014833 142.103863-57.783726 191.192466-4.911366 8.068673-6.677954 33.715526-7.291875 47.873291" fill="#FA6620" p-id="4101"></path><path d="M540.938281 546.081479h-0.275638a6.264498 6.264498 0 0 1-5.98886-6.527606c1.165197-26.699289 3.921575-43.851483 8.193963-50.855192 29.079798-47.948465 48.173986-139.02173 56.98187-189.062537a3.658467 3.658467 0 0 0-1.804175-3.909046 3.608351 3.608351 0 0 0-4.259858 0.275638l-0.714153 0.551275a16.287694 16.287694 0 0 1-19.595349 0.338283 15.899295 15.899295 0 0 1-5.876098-18.45521c22.389314-64.637086 14.496047-143.983213 7.843151-185.52936a3.645938 3.645938 0 0 0-3.107191-3.132249 3.570764 3.570764 0 0 0-3.921576 1.86682c-0.513689 0.914617-1.014849 1.779117-1.503479 2.61856a16.287694 16.287694 0 0 1-28.954508-1.566124c-9.622268-21.374466-13.180503-53.373519-14.483518-76.426871a3.758699 3.758699 0 0 0-7.003709-1.779117c-27.563789 44.678397-32.575387 97.37535-33.427359 117.96049a15.936882 15.936882 0 0 1-12.203241 15.034794 16.287694 16.287694 0 0 1-18.054282-7.367049c-4.848721-8.018557-9.321572-17.465419-13.644076-26.611586-2.86914-6.064034-6.665425-14.082591-9.897906-19.645465-0.889559 5.387468-2.092342 13.155445-3.683525 23.504395-1.115081 7.216701-2.505799 15.899295-4.084452 26.31089-8.181434 52.446374 4.798605 66.265855 21.236647 83.743804 7.755448 8.256608 16.550803 17.603238 23.805091 31.6733 16.638506 32.437569 13.857069 72.06678 10.712291 92.814796a16.137346 16.137346 0 0 1-8.156376 11.752197 16.287694 16.287694 0 0 1-14.458461 0.75174 87.702966 87.702966 0 0 1-22.101147-14.45846 3.595822 3.595822 0 0 0-4.109511-0.50116 3.758699 3.758699 0 0 0-2.1174 3.758698c1.353131 17.540593 11.60185 29.267733 24.581889 44.039419 10.486769 11.952661 22.376785 25.496505 31.259843 44.75357 17.189781 37.311348 18.981428 76.940559 18.530383 97.237532a6.26575 6.26575 0 0 1-12.528995-0.275638c0.438515-19.219479-1.2529-56.693703-17.390245-91.712245-8.10626-17.603238-18.881196-29.869124-29.292791-41.734083-13.355909-15.2102-25.985136-29.580958-27.651492-51.36888a16.400455 16.400455 0 0 1 8.945703-15.911824 15.999527 15.999527 0 0 1 17.941521 2.180045 75.31179 75.31179 0 0 0 18.793492 12.428764 3.87146 3.87146 0 0 0 3.445474-0.162877 3.670996 3.670996 0 0 0 1.86682-2.693734c2.919256-19.244537 5.562874-55.916905-9.47192-85.197167-6.414846-12.528995-14.22041-20.798132-21.762865-28.816689-17.277484-18.392565-33.615294-35.757752-24.494185-94.255631 1.628769-10.436653 2.969372-19.119247 4.084452-26.31089 2.505799-15.949411 3.833873-24.744765 4.748489-29.618544 0.826914-4.410206 2.042226-11.075632 8.557304-10.624588l0.789327 0.112761c8.118789 1.641298 13.531315 12.378647 23.203699 32.813438 4.184684 8.858 8.519717 18.016695 13.030155 25.483976a3.658467 3.658467 0 0 0 4.2348 1.716472 3.520648 3.520648 0 0 0 2.781437-3.432944c0.927146-21.562401 6.201853-76.815269 35.281651-124.037052a16.287694 16.287694 0 0 1 30.182349 7.655216c1.2529 22.025974 4.573083 52.396258 13.406025 72.004135a3.758699 3.758699 0 0 0 6.803244 0.413457c0.438515-0.739211 0.87703-1.516008 1.328074-2.317864a16.287694 16.287694 0 0 1 30.357755 5.349881c6.840831 42.698816 14.846859 124.375335-8.369369 191.618452a3.533177 3.533177 0 0 0 1.340603 4.197213 3.758699 3.758699 0 0 0 4.648257-0.075174l0.588863-0.476102a16.287694 16.287694 0 0 1 26.160541 15.636186c-8.945703 50.892778-28.453348 143.669988-58.59811 193.359983-2.305335 3.758699-5.199533 17.603238-6.389787 44.891389a6.264498 6.264498 0 0 1-6.289556 6.001389z" fill="#D13E05" p-id="4102"></path></svg>