<?xml version="1.0" standalone="no"?><!DOCTYPE svg PUBLIC "-//W3C//DTD SVG 1.1//EN" "http://www.w3.org/Graphics/SVG/1.1/DTD/svg11.dtd"><svg t="1699717674667" class="icon" viewBox="0 0 1024 1024" version="1.1" xmlns="http://www.w3.org/2000/svg" p-id="3971" xmlns:xlink="http://www.w3.org/1999/xlink" width="200" height="200"><path d="M735.817444 616.709125s18.913466 30.743418 45.994659 43.85033c37.345061 18.070191 61.836193 54.210573 49.078638 64.305786-15.034399 11.938373-72.280764 17.528085-102.747105-17.540132s-31.153009-77.460885-31.153009-77.460885" fill="#E6F0FF" p-id="3972"></path><path d="M793.232464 740.044201c-2.770763 0-5.577666-0.108421-8.432756-0.313217-25.201893-1.8793-46.982496-11.98656-61.257947-28.454527-31.514413-36.321084-32.598624-79.50884-32.622718-81.303812l12.046794-0.204796c0 0.385497 1.132399 40.706117 29.695347 73.605911s82.291649 26.430666 94.446864 16.769137c0.349357-0.277076 1.421522-1.120352 1.072165-4.324799-1.445615-13.046678-21.937212-36.730675-49.030452-49.837586-28.334059-13.721298-47.693257-44.78998-48.500392-46.115127l10.251822-6.31252c0.180702 0.289123 18.371361 29.418271 43.488926 41.585532 28.659323 13.86586 53.668467 40.501321 55.764609 59.354554 0.698714 6.324567-1.27696 11.68539-5.553572 15.082586-8.179773 6.505269-24.165869 10.468664-41.36869 10.468664z" fill="#97B5D3" p-id="3973"></path><path d="M277.3767 616.709125s-18.913466 30.743418-45.994659 43.85033c-37.345061 18.070191-61.836193 54.210573-49.078638 64.305786 15.034399 11.938373 72.280764 17.528085 102.747105-17.540132s31.153009-77.460885 31.153009-77.460885" fill="#E6F0FF" p-id="3974"></path><path d="M219.961681 740.044201c-17.202822 0-33.188917-3.939302-41.416878-10.468664-4.264565-3.397196-6.240239-8.758019-5.541525-15.082586 2.096142-18.853233 27.105286-45.488694 55.752562-59.354554 25.129612-12.167262 43.368458-41.29641 43.500973-41.585532l10.251822 6.31252c-0.807135 1.325147-20.166333 32.393829-48.500393 46.115127-27.09324 13.106912-47.584836 36.790909-49.030451 49.837586-0.349357 3.204447 0.722808 4.047723 1.072165 4.324799 12.155215 9.637435 65.811635 16.227031 94.446864-16.769137s29.6833-73.220414 29.6833-73.617958l12.046794 0.216843c0 1.819066-1.108305 44.982729-32.622718 81.303812-14.299544 16.467967-36.056054 26.575227-61.257947 28.454527-2.806903 0.204795-5.565619 0.313217-8.384568 0.313217z" fill="#97B5D3" p-id="3975"></path><path d="M758.429276 633.490309h-0.289123a267.330404 267.330404 0 0 0-243.345238-377.63085c-147.573226 0-267.209936 119.636711-267.209936 267.209936a266.33052 266.33052 0 0 0 23.816512 110.420914h-0.216843l1.20468 2.035908a268.077305 268.077305 0 0 0 23.611716 40.959099l186.363902 322.781797c14.456153 25.009144 50.596535 25.009144 64.992453 0l186.580745-323.360043a266.234146 266.234146 0 0 0 22.997329-39.814654z" fill="#E6F0FF" p-id="3976"></path><path d="M514.782869 1023.999181a43.103429 43.103429 0 0 1-37.718512-21.768557L290.845016 679.677717a275.184914 275.184914 0 0 1-23.876746-41.368691l-6.252286-10.842114h1.469709a273.233333 273.233333 0 1 1 505.134117 0h1.541989l-6.577549 11.396267a274.474153 274.474153 0 0 1-23.262359 40.284479L552.50138 1002.218577a43.091382 43.091382 0 0 1-37.718511 21.780604zM277.569449 632.574752l0.216842 0.421638a260.65648 260.65648 0 0 0 23.081658 39.971262l0.277076 0.445732 186.363902 322.781796a31.502366 31.502366 0 0 0 54.55993 0l186.78554-323.516651 0.144561-0.216842a262.343032 262.343032 0 0 0 22.479318-38.935238l1.204679-2.51778a259.138584 259.138584 0 0 0 23.274406-108.866877c-0.493919-143.501409-117.661036-260.210749-261.174492-260.210749-144.019422 0-261.186539 117.167118-261.18654 261.18654a259.00607 259.00607 0 0 0 23.286453 107.939273z" fill="#97B5D3" p-id="3977"></path><path d="M371.835612 527.791739m-54.017824 0a54.017824 54.017824 0 1 0 108.035648 0 54.017824 54.017824 0 1 0-108.035648 0Z" fill="#BC0D12" p-id="3978"></path><path d="M386.845917 512.781433m-15.010305 0a15.010305 15.010305 0 1 0 30.02061 0 15.010305 15.010305 0 1 0-30.02061 0Z" fill="#FFFFFF" p-id="3979"></path><path d="M657.284394 527.791739m-54.017824 0a54.017824 54.017824 0 1 0 108.035648 0 54.017824 54.017824 0 1 0-108.035648 0Z" fill="#BC0D12" p-id="3980"></path><path d="M642.274089 512.781433m-15.010306 0a15.010305 15.010305 0 1 0 30.020611 0 15.010305 15.010305 0 1 0-30.020611 0Z" fill="#FFFFFF" p-id="3981"></path><path d="M511.975966 672.570108a6.023397 6.023397 0 0 1-4.625969-9.866324c0.566199-0.67462 13.938141-16.552295 29.924236-19.371245 11.854045-2.096142 27.358269 1.011931 34.020146 2.602108l21.551714-19.166449h46.500625a25.864467 25.864467 0 0 0-9.637435-14.648902 6.025806 6.025806 0 0 1 7.155795-9.697669c15.733113 11.613109 15.431943 29.767628 15.40785 30.538623l-0.156609 5.854742h-54.680397l-22.985283 20.479549-3.168307-0.891463c-0.192749 0-19.455572-5.348777-31.911957-3.15626-11.613109 2.047955-22.660019 15.094633-22.768441 15.227148a6.023397 6.023397 0 0 1-4.625968 2.096142z" fill="#97B5D3" p-id="3982"></path><path d="M511.975966 672.582155a6.023397 6.023397 0 0 1-4.625969-2.156376c-0.108421-0.132515-11.155331-13.179193-22.768441-15.227148-10.37229-1.831113-26.563181 1.662458-31.911957 3.15626l-3.168307 0.891463-22.985283-20.47955h-54.620163l-0.156609-5.854742c0-0.770995-0.325263-18.925513 15.40785-30.538622a6.025806 6.025806 0 0 1 7.155795 9.697669 25.864467 25.864467 0 0 0-9.697669 14.648901h46.500625l21.551714 19.16645c6.661877-1.57813 22.166101-4.686203 34.020146-2.602108 15.974049 2.81895 29.358037 18.696624 29.924236 19.371245a6.023397 6.023397 0 0 1-4.625968 9.878371z" fill="#97B5D3" p-id="3983"></path><path d="M571.43894 367.448911s18.431595-174.389389 100.397981-261.584083 184.966474-114.444542 197.567421-92.651892-73.063805 80.014805-148.970654 173.534066-122.154491 180.701909-122.154491 180.701909" fill="#E6F0FF" p-id="3984"></path><path d="M603.60388 370.243768l-10.649366-5.649947c0.469825-0.879416 47.392087-88.784871 122.805018-181.665652 32.743186-40.344713 67.233157-74.087783 94.940783-101.193069 18.070191-17.648553 33.598508-32.887747 43.368458-44.777934 11.733577-14.359778 11.034863-19.27487 10.191588-20.744579-1.096258-1.903393-4.505501-3.312868-9.372406-3.867021-13.118959-1.517896-39.862841 3.096026-75.557492 20.624112-25.960841 12.745508-64.920173 36.441552-103.036228 76.99106-79.617261 84.688961-98.615055 256.379869-98.78371 258.10256l-11.98656-1.264914a705.737329 705.737329 0 0 1 19.636274-99.048739c13.733345-50.391739 39.176174-120.094489 82.36393-166.040961 39.356876-41.862609 79.653402-66.365788 106.517752-79.50884C806.339375 6.346263 837.082793-1.79737 856.285383 0.41924c9.059189 1.048071 15.263288 4.348893 18.419548 9.806091 9.444686 16.443874-13.636971 39.055706-55.608001 80.14732-27.478737 26.912538-61.691632 60.390578-93.964993 100.193185-74.690122 91.880897-121.070279 178.810562-121.528057 179.677932z" fill="#97B5D3" p-id="3985"></path><path d="M452.500944 367.448911S434.081396 193.023382 352.102963 105.828687s-184.954427-114.444542-197.56742-92.651892 73.063805 80.050946 148.958607 173.570207 122.154491 180.701909 122.15449 180.701909" fill="#E6F0FF" p-id="3986"></path><path d="M420.348051 370.243768c-0.457778-0.867369-46.874075-87.797034-121.503964-179.726119-32.321548-39.75442-66.534443-73.280648-93.964992-100.193185C162.944205 49.281037 139.826407 26.669204 149.379515 10.165097 152.535775 4.707899 158.739874 1.407078 167.799063 0.359007c19.20259-2.21661 49.946008 5.927023 82.243462 21.780603 26.86435 13.251473 67.160876 37.694418 106.517752 79.50884 43.187756 45.946472 68.666725 115.649222 82.36393 166.040961a705.737329 705.737329 0 0 1 19.636274 99.048739l-11.98656 1.264914c-0.180702-1.722692-19.178496-173.413599-98.78371-258.10256-38.116056-40.549508-77.099481-64.245552-103.036229-76.99106C208.987051 15.429546 182.243169 10.863811 169.12421 12.33352c-4.818718 0.554153-8.276147 1.963627-9.372406 3.867021-0.843276 1.445615-1.54199 6.384801 10.191588 20.744579 9.709716 11.890186 25.298267 27.12938 43.368458 44.777933 27.707626 27.117333 62.197597 60.860403 94.940783 101.193069 75.41293 92.880781 122.335192 180.786237 122.805018 181.665652z" fill="#97B5D3" p-id="3987"></path></svg>