<?xml version="1.0" standalone="no"?><!DOCTYPE svg PUBLIC "-//W3C//DTD SVG 1.1//EN" "http://www.w3.org/Graphics/SVG/1.1/DTD/svg11.dtd"><svg t="1699976637637" class="icon" viewBox="0 0 1024 1024" version="1.1" xmlns="http://www.w3.org/2000/svg" p-id="1128" xmlns:xlink="http://www.w3.org/1999/xlink" width="200" height="200"><path d="M521.728 512m-474.112 0a474.112 474.112 0 1 0 948.224 0 474.112 474.112 0 1 0-948.224 0Z" fill="#040000" p-id="1129"></path><path d="M521.728 512m-432.64 0a432.64 432.64 0 1 0 865.28 0 432.64 432.64 0 1 0-865.28 0Z" fill="#F3C81E" p-id="1130"></path><path d="M125.610667 598.869333C125.610667 346.453333 330.24 141.824 582.656 141.824c97.962667 0 188.586667 30.890667 262.997333 83.285333C766.293333 135.68 650.752 79.36 521.728 79.36 282.794667 79.36 89.088 273.066667 89.088 512c0 74.922667 19.114667 145.408 52.565333 206.848-10.410667-38.229333-16.042667-78.506667-16.042666-119.978667z" fill="#F6D85E" p-id="1131"></path><path d="M351.744 391.338667m-63.488 0a63.488 63.488 0 1 0 126.976 0 63.488 63.488 0 1 0-126.976 0Z" fill="#040000" p-id="1132"></path><path d="M691.712 391.338667m-63.488 0a63.488 63.488 0 1 0 126.976 0 63.488 63.488 0 1 0-126.976 0Z" fill="#040000" p-id="1133"></path><path d="M271.36 605.354667c18.090667 128.170667 127.829333 226.816 260.949333 226.816s242.858667-98.645333 260.949334-226.816H271.36z" fill="#FFFFFF" p-id="1134"></path><path d="M532.309333 849.237333c-68.096 0-133.802667-24.746667-184.832-69.632-50.517333-44.373333-83.626667-105.472-93.013333-171.861333l-2.730667-19.456h561.322667l-2.730667 19.456c-9.386667 66.389333-42.325333 127.488-93.013333 171.861333-51.2 44.885333-116.906667 69.632-185.002667 69.632zM291.84 622.421333c24.917333 111.104 125.098667 192.682667 240.469333 192.682667s215.552-81.578667 240.469334-192.682667H291.84z" fill="#080103" p-id="1135"></path></svg>