<?xml version="1.0" standalone="no"?><!DOCTYPE svg PUBLIC "-//W3C//DTD SVG 1.1//EN" "http://www.w3.org/Graphics/SVG/1.1/DTD/svg11.dtd"><svg t="1699976826113" class="icon" viewBox="0 0 1024 1024" version="1.1" xmlns="http://www.w3.org/2000/svg" p-id="3120" xmlns:xlink="http://www.w3.org/1999/xlink" width="200" height="200"><path d="M512 512m-473.770667 0a473.770667 473.770667 0 1 0 947.541334 0 473.770667 473.770667 0 1 0-947.541334 0Z" fill="#040000" p-id="3121"></path><path d="M512 512m-432.298667 0a432.298667 432.298667 0 1 0 864.597334 0 432.298667 432.298667 0 1 0-864.597334 0Z" fill="#F3C81E" p-id="3122"></path><path d="M116.224 598.869333c0-252.245333 204.458667-456.704 456.704-456.704 97.792 0 188.416 30.890667 262.656 83.285334C756.394667 136.021333 640.853333 79.701333 512 79.701333 273.237333 79.701333 79.701333 273.237333 79.701333 512c0 74.752 19.114667 145.237333 52.565334 206.677333-10.410667-38.229333-16.042667-78.336-16.042667-119.808z" fill="#F6D85E" p-id="3123"></path><path d="M342.186667 391.509333m-63.317334 0a63.317333 63.317333 0 1 0 126.634667 0 63.317333 63.317333 0 1 0-126.634667 0Z" fill="#040000" p-id="3124"></path><path d="M681.813333 391.509333m-63.317333 0a63.317333 63.317333 0 1 0 126.634667 0 63.317333 63.317333 0 1 0-126.634667 0Z" fill="#040000" p-id="3125"></path><path d="M280.746667 654.506667h464.554666v34.133333H280.746667z" fill="#070001" p-id="3126"></path><path d="M275.114667 624.298667h34.133333v107.52h-34.133333zM430.933333 624.298667h34.133334v107.52h-34.133334zM579.584 624.298667h34.133333v107.52h-34.133333zM728.234667 624.298667h34.133333v107.52h-34.133333z" fill="#070001" p-id="3127"></path></svg>