<?xml version="1.0" standalone="no"?><!DOCTYPE svg PUBLIC "-//W3C//DTD SVG 1.1//EN" "http://www.w3.org/Graphics/SVG/1.1/DTD/svg11.dtd"><svg t="1699717500043" class="icon" viewBox="0 0 1107 1024" version="1.1" xmlns="http://www.w3.org/2000/svg" p-id="4430" xmlns:xlink="http://www.w3.org/1999/xlink" width="216.2109375" height="200"><path d="M735.069334 579.889464c-125.105437-43.777846-155.200965-169.273411-155.200965-169.273411l-26.472918-0.975318-26.472918 0.975318s-30.095528 125.495564-155.200965 169.273411c-96.904813 32.213361-258.041285 249.263423-81.327591 383.160655 74.16597 56.09472 263.001474 53.935087 263.001474 53.935087s188.891236 2.159633 262.945741-53.94902c176.769427-133.883299-2.006369-352.020144-81.271858-383.146722z" fill="#EDE8E9" p-id="4431"></path><path d="M557.254924 1023.97963h-3.80374c-8.90326 0.111465-192.276983 1.393311-267.153542-55.356265-80.603069-61.082775-87.458161-134.928283-79.014694-186.007082 7.468149-45.185091 30.262725-92.738812 64.175926-133.925099 30.37419-36.880955 67.074014-65.067646 98.172727-75.406017 62.420354-21.847124 100.025831-65.22091 120.549309-97.740799 22.418382-35.501576 30.011929-66.251961 30.081594-66.572423l1.240047-5.127386 31.948633-1.170382 31.948632 1.170382 1.240047 5.141319c0 0.306529 7.663213 31.056913 30.081595 66.55849 20.523478 32.51989 58.128955 75.893676 120.660773 97.782599l0.236863 0.083598c27.866229 10.937495 63.869398 41.506749 94.034591 79.781015 35.668774 45.282623 58.82561 95.734431 65.220911 142.048105 4.444664 32.213361 1.058917 62.699016-10.059709 90.439848-12.539803 31.182311-34.763121 59.076406-66.210162 82.915966-70.027835 53.057301-235.163111 55.384131-263.349801 55.384131z m-24.856677-606.592083a272.78252 272.78252 0 0 1-30.15126 65.193043c-21.721726 34.568058-61.584367 80.644868-128.184656 103.927103-53.224498 17.695056-137.115782 101.711738-153.097064 198.421487-11.146492 67.896068 14.253576 127.571599 73.67831 172.603426 71.323614 54.032619 256.801238 52.555709 258.654342 52.527842h0.167198c1.867037 0 187.358594 1.47691 258.654342-52.527842 55.87179-42.342736 79.725283-96.291756 70.891687-160.342285-6.060905-43.903245-28.214557-91.958557-62.378554-135.332343-28.22849-35.835971-62.782615-65.415974-88.057285-75.392084-66.321626-23.337967-106.198201-69.386911-127.919927-103.885304a272.78252 272.78252 0 0 1-30.15126-65.151244l-21.108669-0.808121z" fill="#939393" p-id="4432"></path><path d="M527.591323 411.117645l-0.320462-0.111465s0.167197 0.167197 0.320462 0.111465zM579.631506 411.00618l-0.320462 0.111465a0.348328 0.348328 0 0 0 0.320462-0.111465zM648.488959 186.655167c-28.89728 72.744792-65.736435 92.223286-86.385311 98.521054a32.241227 32.241227 0 0 1-18.935103 0c-20.384147-6.339567-55.857857-25.915593-84.685472-98.465322C416.210003 80.373367 136.683856-60.128162 12.34474 42.851489a14.824834 14.824834 0 0 0-5.350316 12.400473c14.016713 217.35659 479.98187 195.955326 503.333769 280.055606 9.376986 33.77387 13.933115 52.653241 15.995216 63.172742a23.769894 23.769894 0 0 0 15.646888 17.876186 34.832787 34.832787 0 0 0 22.919974-0.139331l0.668789-0.236863a23.115037 23.115037 0 0 0 14.936299-17.263129c2.048168-10.338371 6.57643-29.175942 16.078815-63.409605 23.3519-84.128147 489.317056-62.699016 503.333769-280.055606a14.824834 14.824834 0 0 0-5.350316-12.400473c-124.325183-102.979651-403.865264 37.521878-446.068668 143.803678z" fill="#9BCD51" p-id="4433"></path><path d="M553.214321 425.217957a41.799344 41.799344 0 0 1-13.501189-2.243231 30.833983 30.833983 0 0 1-20.216949-23.115038c-2.535827-12.7488-7.886143-33.829603-15.883751-62.699016-7.705012-27.768698-82.832367-45.254757-162.376519-63.757933-72.257133-16.761537-154.155981-35.808105-219.767019-67.937867C43.847512 167.511067 4.152068 118.522236 0.097532 55.711754a21.916789 21.916789 0 0 1 7.858277-18.224514C54.492412-1.065688 127.306869-10.219745 212.981592 11.697045c112.621366 28.813681 225.716459 106.142468 251.966447 172.380495 20.57921 51.817254 48.333975 84.448608 80.268674 94.396853a25.079607 25.079607 0 0 0 14.8527 0c33.091147-10.045776 61.445036-42.691064 81.99638-94.424719 26.305721-66.238027 139.331147-143.511082 251.966447-172.380495C979.706963-10.247611 1052.52142-1.093554 1099.058023 37.459374a21.916789 21.916789 0 0 1 7.858277 18.224514c-4.054536 62.810481-43.74998 111.799313-121.371362 149.753117-65.708569 32.157629-147.621351 51.204197-219.878484 68.007533-79.544152 18.503176-154.657574 35.989235-162.376519 63.757933-8.09514 29.175942-13.473322 50.340344-15.953416 62.908013a30.234859 30.234859 0 0 1-19.506361 22.460181l-0.682723 0.236863a41.799344 41.799344 0 0 1-13.933114 2.410429zM126.86101 13.940276c-44.836763 0-82.609437 11.550552-110.071607 34.275463a7.914009 7.914009 0 0 0-2.786623 6.590363c3.706209 57.3905 40.851892 102.575591 113.582752 138.146832 64.259525 31.419174 145.33632 50.284611 216.854997 66.878951 90.927507 21.150468 162.73878 37.856273 172.659158 73.608645 8.09514 29.148076 13.515121 50.577206 16.106681 63.660402a16.900868 16.900868 0 0 0 11.076826 12.651268 27.991628 27.991628 0 0 0 18.322046-0.111465l0.682723-0.250796a16.204212 16.204212 0 0 0 10.435902-12.038211c2.54976-12.902064 8.011541-34.40086 16.19028-63.925131 9.920378-35.738439 81.731651-52.444244 172.659158-73.594712 71.532611-16.636139 152.595473-35.501576 216.854997-66.878951 72.730859-35.571242 109.876543-80.812065 113.582752-138.146832a7.87221 7.87221 0 0 0-2.786623-6.590363c-43.011525-35.626974-111.464918-43.805713-192.681044-23.017506-52.87617 13.529054-107.438248 38.343932-153.668322 69.888504-44.82283 30.652852-77.203389 64.914382-88.809674 94.146056l-6.464965-2.577626 6.464965 2.577626c-22.251184 55.802125-53.712157 91.317634-91.011105 102.603457a39.09632 39.09632 0 0 1-23.031439 0c-36.602292-11.397288-66.572422-45.89568-89.074402-102.547725-11.606285-29.259541-43.986843-63.548936-88.809674-94.146056-46.230075-31.544572-100.792152-56.359449-153.668322-69.888503-29.482471-7.593548-57.181503-11.313689-82.637304-11.31369z" fill="#6C9B23" p-id="4434"></path><path d="M702.549444 625.882676c-102.046132-35.724506-148.150809-138.871355-148.150809-138.871355s-46.104677 103.105049-148.150809 138.871355c-86.928703 32.380559-210.473631 203.31201-66.335559 312.533696 60.400052 45.756349 214.486368 44.000776 214.486368 44.000777s154.086316 1.755572 214.486369-44.000777c144.152005-109.221686 22.181519-270.706486-66.33556-312.533696z" fill="#3F383A" p-id="4435"></path><path d="M557.477854 989.397639h-3.079219c-7.468149 0.083599-157.332732 1.07285-218.749901-45.421954-66.419158-50.36821-73.176719-109.932275-67.129747-151.021031 5.392115-36.741624 23.686295-75.461749 51.329595-109.040556 25.205005-30.541388 55.816058-54.074418 83.974882-64.566053 98.033395-34.303328 143.761878-134.189828 144.221671-135.151213l6.367433-14.197844 6.353501 14.211777c0.44586 0.989251 46.174342 100.875751 144.082339 135.151213l0.682723 0.278662c60.511517 28.590751 127.93386 104.777023 136.028999 182.746733 5.656845 54.436679-18.02945 103.411578-68.467326 141.630111-57.460165 43.485251-192.555646 45.380155-215.61495 45.380155z m-3.079219-487.101691a320.182977 320.182977 0 0 1-30.37419 45.115425c-22.72491 28.312089-61.19424 66.042964-115.477655 84.992-52.221314 19.506361-115.505521 89.42273-126.247952 162.515851-7.87221 53.586759 13.501188 101.265878 61.82123 137.937835 57.836359 43.819646 208.676259 42.621398 210.194969 42.593532h0.167197c1.504776 0 152.400409 1.198248 210.194969-42.593532 47.010329-35.626974 68.272262-79.056493 63.019478-129.090308-7.468149-71.978471-72.089936-144.904393-127.794528-171.377311-54.088351-19.032635-92.460149-56.665978-115.129328-84.992a320.182977 320.182977 0 0 1-30.37419-45.101492z" fill="#6D696A" p-id="4436"></path><path d="M400.981109 774.576876m-60.386119 0a60.386119 60.386119 0 1 0 120.772238 0 60.386119 60.386119 0 1 0-120.772238 0Z" fill="#E8BE48" p-id="4437"></path><path d="M705.921258 774.576876m-60.386119 0a60.386119 60.386119 0 1 0 120.772238 0 60.386119 60.386119 0 1 0-120.772238 0Z" fill="#E8BE48" p-id="4438"></path></svg>