<?xml version="1.0" standalone="no"?><!DOCTYPE svg PUBLIC "-//W3C//DTD SVG 1.1//EN" "http://www.w3.org/Graphics/SVG/1.1/DTD/svg11.dtd"><svg t="1699717698120" class="icon" viewBox="0 0 1024 1024" version="1.1" xmlns="http://www.w3.org/2000/svg" p-id="4952" xmlns:xlink="http://www.w3.org/1999/xlink" width="200" height="200"><path d="M376.946969 506.267265m-56.846352 0a56.846351 56.846351 0 1 0 113.692703 0 56.846351 56.846351 0 1 0-113.692703 0Z" fill="#764F86" p-id="4953"></path><path d="M512 959.948464a448.06626 448.06626 0 0 1-174.367422-860.695579 448.06626 448.06626 0 0 1 348.734844 825.49423 445.111546 445.111546 0 0 1-174.367422 35.201349z m0-876.27409c-236.171019 0-428.31581 192.144791-428.31581 428.325626s192.144791 428.31581 428.31581 428.31581 428.325626-192.144791 428.325626-428.31581S748.180835 83.674374 512 83.674374z" fill="#764F86" p-id="4954"></path><path d="M512 910.179685a396.933011 396.933011 0 1 1 154.999808-31.294452 395.597991 395.597991 0 0 1-154.999808 31.294452z m0-786.552859c-214.14318 0-388.363357 174.220177-388.363357 388.373174s174.220177 388.363357 388.363357 388.363357 388.373174-174.190728 388.373174-388.363357-174.220177-388.373174-388.373174-388.373174z" fill="#764F86" p-id="4955"></path><path d="M376.956785 375.818091a130.439357 130.439357 0 1 1-92.273477 38.205146 129.575521 129.575521 0 0 1 92.273477-38.205146m0-68.714291c-110.001764 0-199.163465 89.171517-199.163465 199.163465s89.161701 199.163465 199.163465 199.163465S576.12025 616.229763 576.12025 506.286898s-89.171517-199.183098-199.163465-199.183098zM756.652326 462.869282a53.862188 53.862188 0 1 1-53.862188 53.862188 53.921086 53.921086 0 0 1 53.862188-53.862188m0-49.081637A102.943825 102.943825 0 1 0 859.59615 516.73147a102.943825 102.943825 0 0 0-102.943824-102.943825z" fill="#764F86" p-id="4956"></path><path d="M658.685379 519.705817a17.149124 17.149124 0 0 1-10.081368-3.298286c-4.73147-3.416082-21.085471-13.222593-33.287166-13.222593-12.987001 0-32.39388 9.629817-38.175697 13.006634a17.178573 17.178573 0 0 1-17.394532-29.625676c3.082327-1.816021 30.862533-17.738103 55.570229-17.738104 25.600982 0 50.740596 17.787185 53.528433 19.809349a17.188389 17.188389 0 0 1-10.140266 31.068676z" fill="#764F86" p-id="4957"></path></svg>