<?xml version="1.0" standalone="no"?><!DOCTYPE svg PUBLIC "-//W3C//DTD SVG 1.1//EN" "http://www.w3.org/Graphics/SVG/1.1/DTD/svg11.dtd"><svg t="1699717701280" class="icon" viewBox="0 0 1024 1024" version="1.1" xmlns="http://www.w3.org/2000/svg" p-id="5114" xmlns:xlink="http://www.w3.org/1999/xlink" width="200" height="200"><path d="M511.980367 959.958281a448.06626 448.06626 0 0 1-174.347789-860.705396 448.06626 448.06626 0 0 1 348.734844 825.49423 445.150811 445.150811 0 0 1-174.387055 35.211166z m0-876.283907c-236.180835 0-428.325626 192.144791-428.325626 428.325626s192.164423 428.325626 428.325626 428.325626 428.335442-192.144791 428.335443-428.325626S748.171019 83.674374 511.980367 83.674374z" fill="#7A912E" p-id="5115"></path><path d="M511.980367 910.189501a396.933011 396.933011 0 1 1 154.989992-31.294451 395.81395 395.81395 0 0 1-154.989992 31.294451z m0-786.552858c-214.133364 0-388.353541 174.23981-388.353541 388.363357s174.220177 388.373174 388.353541 388.373174 388.38299-174.229993 388.38299-388.373174-174.220177-388.363357-388.38299-388.363357z" fill="#7A912E" p-id="5116"></path><path d="M698.598566 562.024004c-13.232409-62.235515-181.602055-375.111316-181.602055-375.111316s-177.282871 314.122474-191.035546 376.210745c-17.286552 78.069251 17.414165 228.641896 188.99375 228.641895 165.974462 0 199.006404-157.483339 183.643851-229.741324zM513.865102 723.36516a121.722459 121.722459 0 1 1 121.722459-121.722459 121.722459 121.722459 0 0 1-121.722459 121.722459z" fill="#7A912E" p-id="5117"></path><path d="M513.865102 601.623068m-55.668392 0a55.668392 55.668392 0 1 0 111.336784 0 55.668392 55.668392 0 1 0-111.336784 0Z" fill="#7A912E" p-id="5118"></path></svg>