<?xml version="1.0" standalone="no"?><!DOCTYPE svg PUBLIC "-//W3C//DTD SVG 1.1//EN" "http://www.w3.org/Graphics/SVG/1.1/DTD/svg11.dtd"><svg t="1699717685221" class="icon" viewBox="0 0 1024 1024" version="1.1" xmlns="http://www.w3.org/2000/svg" p-id="4303" xmlns:xlink="http://www.w3.org/1999/xlink" width="200" height="200"><path d="M321.030145 412.290992l-60.146254 25.758484c-51.749842 22.16187-113.75909-5.783045-137.874516-62.099811-24.128364-56.290891-17.853696-148.340922 67.637043-185.005685 84.339305-36.134327 156.439773 22.342994 180.555199 78.646822 24.128364 56.355578 1.539558 120.53832-50.171472 142.70019z" fill="#F3F3F3" p-id="4304"></path><path d="M223.559318 452.125433c-43.857991 0-86.91386-27.931977-106.501175-73.652963-13.636083-31.83909-16.482325-70.754972-7.59429-104.08187 7.658977-28.68235 27.517979-67.481794 78.633885-89.371977 89.695414-38.424258 164.55156 24.839924 189.055111 82.036437 25.590297 59.719318 1.552495 127.524548-53.574024 151.135414l-60.146254 25.771421a100.912192 100.912192 0 0 1-39.873253 8.163538z m19.406191-265.851876a125.493367 125.493367 0 0 0-49.718661 10.634592c-86.072925 36.871762-85.07674 127.809172-64.234492 176.479899 22.782868 53.160025 80.820316 79.487757 129.374605 58.684321l60.146254-25.771421c48.567227-20.803437 69.551788-80.988503 46.781858-134.148529-17.698446-41.154062-63.794618-85.840051-122.414252-85.84005z" fill="#CFD1D1" p-id="4305"></path><path d="M702.969855 412.290992l60.146254 25.758484c51.749842 22.16187 113.75909-5.783045 137.887454-62.099811 24.115426-56.290891 17.853696-148.340922-67.637044-185.005685-84.352243-36.134327-156.45271 22.342994-180.568136 78.646822-24.115426 56.355578-1.539558 120.53832 50.171472 142.70019z" fill="#F3F3F3" p-id="4306"></path><path d="M800.45362 452.125433a101.015692 101.015692 0 0 1-39.886191-8.163538l-60.146254-25.732609c-55.126519-23.610865-79.151383-91.416096-53.574024-151.135414 24.50355-57.196513 99.372634-120.460695 189.068048-82.036437 51.115907 21.890183 70.961971 60.689627 78.620948 89.371978 8.888035 33.326898 6.054732 72.24278-7.59429 104.081869-19.574378 45.720985-62.643184 73.61415-106.488237 73.614151z m-94.935086-45.824485l60.146254 25.771421c48.567227 20.803437 106.604675-5.524296 129.374606-58.684321 12.536399-29.277473 15.149766-65.036614 6.986228-95.659583-6.921541-25.874921-24.878737-60.974251-71.156033-80.820316-45.785673-19.626128-83.588932-8.435224-107.23861 4.398737-28.138977 15.266203-52.37084 41.749185-64.829615 70.845533-22.782868 53.160025-1.798307 113.345092 46.76892 134.148529z" fill="#CFD1D1" p-id="4307"></path><path d="M884.378926 593.609501c0 86.887985-29.096349 136.063272-103.900745 190.439419-66.602047 48.437852-173.116159 60.081567-270.5223 60.081566-107.380922 0-220.260265-19.690815-288.505369-77.159014-63.277119-53.250587-81.790625-106.358863-81.790626-185.354997 0-164.241061 163.529501-332.233986 370.32187-332.233986s374.39717 179.985951 374.39717 344.227012z" fill="#F3F3F3" p-id="4308"></path><path d="M509.955881 850.599217c-59.111257 0-113.086342-5.783045-160.42451-17.206823-55.100644-13.299709-99.618446-33.973771-132.272597-61.465875-32.175464-27.091042-53.2894-54.246772-66.420922-85.464864-12.057713-28.669413-17.672571-61.983373-17.672571-104.79343 0-82.411623 39.963816-167.126115 109.657915-232.434416a393.725736 393.725736 0 0 1 119.555073-76.939077 385.238762 385.238762 0 0 1 147.577612-29.303349 370.735869 370.735869 0 0 1 148.315048 31.218093 406.158636 406.158636 0 0 1 120.939381 81.10494c34.129021 33.016399 62.345622 71.919343 81.583626 112.555906 19.66494 41.464561 30.053721 84.986178 30.05372 125.842679 0 45.048238-7.853039 80.212255-24.710549 110.5506-16.482325 29.756159-41.72331 55.954517-81.855313 85.115553-56.795452 41.179937-146.529678 61.220063-274.325913 61.220063z m0-594.747998c-95.82777 0-187.593178 36.496576-258.283462 102.775187-67.09367 62.863121-105.569678 144.149185-105.569677 222.990069 0 82.73506 21.540872 131.638661 79.487757 180.412887s158.936702 75.632394 284.365382 75.632394c124.962931 0 212.174352-19.250941 266.718686-58.878383 74.739709-54.337334 101.235629-102.788124 101.235629-185.199747 0-78.206949-40.261377-163.827063-107.691422-228.993051-72.488591-70.121036-164.913809-108.713481-260.262893-108.713481z" fill="#CFD1D1" p-id="4309"></path><path d="M246.665622 578.912546a78.025824 76.26633 0 1 0 156.051649 0 78.025824 76.26633 0 1 0-156.051649 0Z" fill="#42393B" p-id="4310"></path><path d="M275.723159 557.720985a19.755502 19.302691 0 1 0 39.511004 0 19.755502 19.302691 0 1 0-39.511004 0Z" fill="#FFFFFF" p-id="4311"></path><path d="M621.282729 577.036614a78.025824 76.26633 0 1 0 156.051649 0 78.025824 76.26633 0 1 0-156.051649 0Z" fill="#42393B" p-id="4312"></path><path d="M650.353203 555.845054a19.755502 19.302691 0 1 0 39.511004 0 19.755502 19.302691 0 1 0-39.511004 0Z" fill="#FFFFFF" p-id="4313"></path><path d="M469.422817 741.782236c-31.94259 0-41.956184-26.638231-42.771244-40.727125a6.480374 6.480374 0 0 1 12.93746-0.776248c0.194062 2.936804 2.690992 28.565913 29.859659 28.565913 29.626785 0 36.393076-13.623146 36.664763-14.231207v0.116437l11.928339 5.019735c-0.452811 0.931497-9.793658 22.032495-48.618977 22.032495z" fill="#CFD1D1" p-id="4314"></path><path d="M554.577183 741.782236c-38.812382 0-48.153228-21.100998-48.541352-21.993683l11.928338-5.032672v-0.116437c0.271687 0.582186 7.050916 14.231207 36.664763 14.231207 27.168667 0 29.665597-25.642047 29.872597-28.565913a6.480374 6.480374 0 0 1 12.93746 0.776247c-0.905622 14.06302-10.906279 40.701251-42.861806 40.701251z" fill="#CFD1D1" p-id="4315"></path><path d="M245.824687 694.418193m-39.239317 0a39.239318 39.239318 0 1 0 78.478635 0 39.239318 39.239318 0 1 0-78.478635 0Z" fill="#FFBECC" p-id="4316"></path><path d="M776.907442 694.418193m-39.239318 0a39.239318 39.239318 0 1 0 78.478635 0 39.239318 39.239318 0 1 0-78.478635 0Z" fill="#FFBECC" p-id="4317"></path></svg>