<?xml version="1.0" standalone="no"?><!DOCTYPE svg PUBLIC "-//W3C//DTD SVG 1.1//EN" "http://www.w3.org/Graphics/SVG/1.1/DTD/svg11.dtd"><svg t="1699717479676" class="icon" viewBox="0 0 1024 1024" version="1.1" xmlns="http://www.w3.org/2000/svg" p-id="3911" xmlns:xlink="http://www.w3.org/1999/xlink" width="200" height="200"><path d="M331.754815 915.685188s-73.453851-12.706332-124.308796 15.549706-40.799468 53.861221-40.799467 53.861221-2.236196 34.150117 62.746767 31.336361 125.478726-24.464871 125.478726-24.464871 37.23044-13.71336 34.061262-27.24901c-5.138808-21.73997-48.337373-46.204842-48.337373-46.204841z" fill="#FAF4E8" p-id="3912"></path><path d="M221.944269 1024c-24.538918 0-42.354438-5.49423-52.987475-16.379024a32.447054 32.447054 0 0 1-9.714865-21.503023c-1.732682-6.975154-4.561247-34.061262 44.620253-61.354698 52.528389-29.18902 126.056287-16.897348 129.151419-16.364215l1.007029 0.236948 9.522344 3.065513 0.666416 0.370231c4.70934 2.665664 46.175223 26.760304 51.832354 50.9438 4.368727 18.481937-28.492986 32.150869-38.666936 35.897608-2.576808 0.932982-62.376537 22.065774-127.729732 24.909149-2.591618 0.118474-5.183235 0.177711-7.700807 0.177711z m70.610477-103.664709c-24.405634 0-56.156654 3.33208-81.450843 17.415671-43.242993 24.020594-37.585862 44.501779-37.497007 44.694299l0.651607 1.673444-0.162902 1.480925c0 0.118474-0.088855 6.190264 5.820033 12.010297s19.459347 12.73595 49.211119 11.432736c63.042953-2.73971 122.724207-23.813265 123.316576-24.035403 15.697799-5.805224 29.263067-15.09062 29.307495-18.600411-3.13956-13.32832-28.448558-32.047204-44.131548-41.066034l-7.537905-2.413907a257.26619 257.26619 0 0 0-37.526625-2.636045z" fill="#89A230" p-id="3913"></path><path d="M711.449027 915.685188s73.439042-12.706332 124.293987 15.549706 40.814277 53.861221 40.814277 53.861221 2.236196 34.150117-62.746768 31.336361-125.478726-24.464871-125.478726-24.464871-37.23044-13.71336-34.061261-27.24901c5.138808-21.73997 48.337373-46.204842 48.337373-46.204841z" fill="#FAF4E8" p-id="3914"></path><path d="M821.170718 1024c-2.517572 0-5.09438 0-7.760044-0.177711-65.338385-2.843375-125.138114-23.976166-127.655685-24.87953-10.233188-3.776357-43.10971-17.44529-38.740983-35.927227 5.716368-24.183496 47.197061-48.278136 51.906401-50.9438l0.651607-0.370231 10.529372-3.302461c3.109941-0.533133 76.637839-12.824805 129.166228 16.364215 49.166691 27.308246 46.352934 54.379545 44.620253 61.354698a32.447054 32.447054 0 0 1-9.714864 21.503023c-10.633037 10.884794-28.448558 16.379024-53.002285 16.379024z m-115.645388-98.673994c-15.68299 9.01883-40.991988 27.767333-44.131548 41.095653 0 3.494982 13.609695 12.795187 29.381541 18.60041 0.518324 0.19252 60.199578 21.266075 123.24253 24.005785 30.151621 1.318023 43.568796-5.671941 49.522112-11.75854a17.593382 17.593382 0 0 0 5.509039-11.684493l-0.133283-1.865965 0.577561-1.229168c0.414659-1.584589 4.546438-21.458595-37.467388-44.783154-45.908657-25.531137-112.683539-15.786654-118.962659-14.809244z" fill="#89A230" p-id="3915"></path><path d="M395.227236 152.712926s77.926243 6.960345 79.022127 66.064039-58.318804 194.001099-79.022127 211.772192 247.87713 5.420183 247.877129 5.420183-73.86851-139.532699-59.103693-204.693373c11.536401-50.914182 59.103694-68.122523 59.103693-68.122524z" fill="#B5D361" p-id="3916"></path><path d="M480.424818 447.505741c-17.682238 0-32.802476-0.251757-45.197814-0.755271-40.977179-1.643826-45.686518-5.657131-47.863477-11.136552a9.374252 9.374252 0 0 1 3.109941-10.721892c7.878518-6.753015 26.552975-39.703584 45.627282-87.478206 19.755532-49.448066 31.277124-93.742516 30.803228-118.473954-0.39985-21.340121-12.276863-37.645099-35.305238-48.470656a126.145142 126.145142 0 0 0-37.023111-10.366471l0.97741-14.809244 285.448182 12.010297-35.364475 12.780378c-0.429468 0.148092-43.939028 16.601163-54.394354 62.761577-13.994736 61.784167 57.756052 198.221734 58.422469 199.598993l5.464611 10.366471-11.669685 0.533133c-0.607179 0-61.636074 2.813756-122.561305 3.820785q-22.065774 0.340613-40.473664 0.340612z m-74.401643-17.771093c28.137564 4.620484 129.284702 3.5246 225.307841-0.607179-16.971394-34.061262-67.456107-142.168744-54.483209-199.450901 6.782634-29.944292 24.89434-48.974171 40.103433-60.14034l-169.240043-7.226911c21.814017 13.32832 33.49851 32.580337 33.942788 56.275128 0.725653 38.370752-22.036155 99.681023-31.854684 124.264368-13.165418 33.024615-30.803228 69.988488-43.835363 86.811789z" fill="#8DA82C" p-id="3917"></path><path d="M500.535771 127.788968c-53.313279-18.822549-191.779712-107.056026-366.780551 47.167443-37.704336 33.217135-49.359211 45.612472-78.044717 112.550256-12.365719 28.848408-20.199809 86.441558-24.87953 135.430538-2.399098 25.175715 29.144593 38.193041 45.286669 18.778122 25.723657-30.980939 55.105198-63.116999 72.787435-72.032164 55.727186-28.137564 44.723918-25.753276 131.994794-38.370752 323.019235-46.723165 301.086744-174.7787 219.6359-203.523443z" fill="#B5D361" p-id="3918"></path><path d="M56.628676 458.494201a33.824314 33.824314 0 0 1-12.987707-2.636046A32.461863 32.461863 0 0 1 23.455969 422.226362c6.397593-66.848928 14.957337-113.157435 25.457091-137.637116 29.485205-68.803749 41.791687-81.554508 79.969919-115.171492 68.270616-60.15515 139.473462-90.825095 211.638909-91.180517h1.273595c59.873774 0 108.107483 20.466375 140.110259 34.061262 8.174703 3.465363 15.238712 6.45683 21.117982 8.544934 36.756544 12.958089 59.325832 43.30223 56.171464 75.527145-2.028866 20.584849-15.253522 51.32884-66.774882 80.888092-47.952333 27.530385-118.755329 48.20409-210.424551 61.458364l-9.033639 1.303213c-68.833367 9.922194-68.833367 9.922194-106.626559 29.233448-4.176207 2.132531-8.796691 4.442773-14.009545 7.108437-9.537153 4.813004-29.500014 20.881034-70.432765 70.15139a32.580337 32.580337 0 0 1-25.264571 11.980679zM341.573344 92.809533c-57.667197 0-126.38209 20.273855-202.886646 87.715154-37.023111 32.580337-47.80424 43.835363-76.119515 109.899401-9.744483 22.746999-18.156133 68.818558-24.316779 133.283198a18.244989 18.244989 0 0 0 32.210106 13.32832C104.640246 395.910335 129.919626 371.045614 145.617425 363.122668c5.183235-2.606427 9.78891-4.961097 13.950308-7.078819 39.659156-20.229428 40.710612-20.525612 111.29147-30.699563l9.01883-1.303213c89.832875-12.987707 158.858763-33.054233 205.182078-59.636827 46.056749-26.434501 57.756052-52.380297 59.399879-69.484974 2.487953-25.27938-16.142076-49.418448-46.352935-60.081103-6.308738-2.221387-13.565268-5.301709-21.962109-8.885547-32.210106-13.698551-78.089145-33.157898-134.571602-33.157898z" fill="#8DA82C" p-id="3919"></path><path d="M522.853302 49.625777c53.313279-18.822549 191.779712-107.041217 366.780552 47.167443 37.704336 33.231944 49.359211 45.627281 78.029907 112.550256 12.884042 30.047956 20.851416 91.3138 25.457091 141.531947 2.14734 23.32456-27.160154 35.349666-42.043444 17.25277-26.65664-32.313771-58.037428-67.263587-76.60822-76.62303-55.727186-28.137564-44.723918-25.753276-131.979985-38.370752-323.034044-46.693547-301.086744-174.749082-219.635901-203.508634z" fill="#B5D361" p-id="3920"></path><path d="M969.129877 384.314696a30.714372 30.714372 0 0 1-23.828074-11.477164c-43.331849-52.691291-64.27212-69.707112-74.209123-74.727446-5.198045-2.621236-9.818529-4.975906-14.009545-7.108437-37.852428-19.252017-37.852428-19.252017-106.626558-29.233448l-9.033639-1.303214c-91.684031-13.32832-162.472218-33.927978-210.424551-61.443554-51.521361-29.618488-64.746016-60.318052-66.774882-80.888092-3.154369-32.180488 19.414919-62.50982 56.156654-75.527145 5.923698-2.073294 12.943279-5.079571 21.117982-8.544934 32.002777-13.580077 80.251294-34.061262 140.125069-34.061262h1.258785c72.180256 0.355422 143.383102 31.025367 211.638909 91.180517 38.163422 33.616984 50.469904 46.382553 79.969919 115.186301 10.825558 25.264571 19.577821 73.631562 26.019842 143.768143a30.625517 30.625517 0 0 1-19.252017 31.691782 31.839875 31.839875 0 0 1-12.128771 2.487953zM525.267209 56.615741c-30.196049 10.662656-48.870506 34.801724-46.352934 60.066294 1.688254 17.104677 13.32832 43.065282 59.414688 69.484974 46.323316 26.65664 115.349203 46.649119 205.167269 59.636826l9.033639 1.303214c70.580858 10.18876 71.617505 10.470136 111.29147 30.699563 4.161398 2.117722 8.767073 4.442773 13.935499 7.078819 16.290169 8.219131 42.872762 34.653631 78.992509 78.488994a16.379024 16.379024 0 0 0 28.966881-11.847395c-6.219883-67.633818-14.809244-115.79348-24.894339-139.295751-28.315275-66.078848-39.155642-77.319064-76.134325-109.914211-151.498568-133.505337-272.490093-82.176496-337.443438-54.601683-8.396841 3.554219-15.66818 6.634541-21.976919 8.885546z" fill="#8DA82C" p-id="3921"></path><path d="M869.90794 604.424493C797.594401 457.664883 665.732891 385.380962 515.211732 387.498684l-0.207329 0.340613-0.207329-0.340613C364.261106 385.380962 232.399596 457.664883 160.086056 604.424493S79.272011 985.096115 487.62211 985.096115q14.335348 0 27.382293-0.9626c8.707836 0.636798 17.771093 0.962601 27.382293 0.9626 408.379718 0 399.864403-233.926822 327.521244-380.671622z" fill="#B5D361" p-id="3922"></path><path d="M542.416314 992.500738c-9.418679 0-18.630029-0.310994-27.382292-0.947792-8.767073 0.636798-17.978422 0.947792-27.382293 0.947792-92.024644 0-168.469962-11.95106-227.218234-35.542187-52.617245-21.117982-91.684031-51.72869-116.104474-90.987996-61.117751-98.244526-13.965117-217.932838 9.152112-264.818905 35.927226-72.920718 86.693316-129.225465 150.87658-167.344459 61.769358-36.712116 132.572354-54.794204 210.572644-53.653892h0.207329c77.941052-1.110693 148.803286 16.941775 210.572644 53.653892 64.183264 38.163422 114.949354 94.468169 150.87658 167.344459 23.102421 46.886067 70.255055 166.574379 9.137303 264.818905-24.420444 39.259306-63.472421 69.870014-116.089665 90.987996-58.763081 23.591126-135.19359 35.542186-227.218234 35.542187z m-27.382292-15.786655h0.533132c8.574552 0.636798 17.593382 0.947792 26.84916 0.947792 90.114251 0 164.708414-11.595638 221.694386-34.475921 49.640587-19.918433 86.323084-48.544703 109.040465-85.079108 57.193301-91.935788 12.158389-205.848494-9.848147-250.439128-66.774882-135.519394-191.03925-212.838458-341.708501-212.838458h-2.251005l-4.30949 6.797443-4.309491-6.797443h-2.265814c-150.610014 0-274.918809 77.304255-341.693692 212.838458-22.021346 44.664681-67.056258 158.458913-9.862956 250.439128 22.73219 36.534405 59.414688 65.160675 109.040465 85.079108 57.000781 22.880282 131.580135 34.475921 221.709195 34.475921 9.240968 0 18.274607-0.310994 26.83435-0.947792z" fill="#8DA82C" p-id="3923"></path><path d="M533.08649 395.377202s-22.302722-0.281376-28.670697 0 2.310242 17.386053 2.310243 17.386053h28.389321z" fill="#B5D361" p-id="3924"></path><path d="M516.352044 978.298672V568.260319c-0.932982-2.561999-44.042692-63.605704-110.728719-81.450843-45.790183-12.232436-80.828855-5.568276-114.860498 11.684493-39.984959 20.288665-80.251294 69.899633-95.341914 120.724959-8.885547 29.929483-9.877766 42.946808-3.228415 94.601452 0 0 3.776357 23.11723-1.732682 31.188268-34.431493 50.455095-34.238973 131.935557 75.852949 177.088943 109.351459 44.842391 242.693894 56.156654 250.009661 56.156654z" fill="#FAF4E8" p-id="3925"></path><path d="M515.034022 978.298672v-408.73514c0.932982-2.561999 44.042692-63.605704 110.728718-81.450843 45.790183-12.232436 80.814046-5.553467 114.845689 11.699303 39.984959 20.288665 80.251294 69.899633 95.356724 120.724959 8.885547 29.929483 9.877766 42.946808 3.213606 94.601452 0 0-3.761548 23.102421 1.747491 31.188268 34.431493 50.455095 34.238973 131.935557-75.852949 177.088942-109.351459 44.842391-242.708703 54.794204-250.02447 54.794204z" fill="#FAF4E8" p-id="3926"></path><path d="M399.314587 657.456397c3.465363 23.694791 7.300957 58.955601-6.516067 72.639342-15.579325 15.446042-53.964886 11.580829-82.398635 8.115466-46.693547-5.68675-81.450843-24.998004-81.450843-47.596911 0-42.546959 38.133804-110.180777 85.182773-110.180777s79.022127 34.920198 85.182772 77.02288z" fill="#AA3A40" p-id="3927"></path><path d="M340.684789 644.187314m-24.909148 0a24.909149 24.909149 0 1 0 49.818297 0 24.909149 24.909149 0 1 0-49.818297 0Z" fill="#FFFFFF" p-id="3928"></path><path d="M630.6646 657.456397c-3.465363 23.694791-7.300957 58.955601 6.516068 72.639342 15.579325 15.446042 53.964886 11.580829 82.398635 8.115466 46.693547-5.68675 81.450843-24.998004 81.450843-47.596911 0-42.546959-38.133804-110.180777-85.182773-110.180777s-79.022127 34.920198-85.182773 77.02288z" fill="#AA3A40" p-id="3929"></path><path d="M689.294398 644.187314m-24.909149 0a24.909149 24.909149 0 1 0 49.818298 0 24.909149 24.909149 0 1 0-49.818298 0Z" fill="#FFFFFF" p-id="3930"></path><path d="M480.291535 872.101582c-10.988459 0-22.34715-2.191768-32.506291-8.396841-21.073555-12.884042-31.94354-39.496254-32.284153-79.110983l14.809244-0.133283c0.296185 34.164926 8.781882 56.571313 25.175716 66.641599 26.316027 16.082839 66.730454-3.865213 68.433517-4.724149l6.634541 13.239464c-3.435745 1.688254-25.930987 12.484193-50.262574 12.484193z" fill="#8DA82C" p-id="3931"></path><path d="M568.74715 871.435166c-25.753276 0-48.870506-10.751511-50.35143-11.417927l6.323547-13.402366c0.444277 0.207329 44.353686 20.466375 72.565297 2.695282 16.482689-10.366471 24.983195-32.165678 25.27938-64.820062l14.809244 0.133284c-0.340613 38.059758-11.195789 64.049981-32.254534 77.259827-11.284644 7.108437-24.124259 9.551963-36.371504 9.551962z" fill="#8DA82C" p-id="3932"></path></svg>