<?xml version="1.0" standalone="no"?><!DOCTYPE svg PUBLIC "-//W3C//DTD SVG 1.1//EN" "http://www.w3.org/Graphics/SVG/1.1/DTD/svg11.dtd"><svg t="1699717710223" class="icon" viewBox="0 0 1024 1024" version="1.1" xmlns="http://www.w3.org/2000/svg" p-id="5595" xmlns:xlink="http://www.w3.org/1999/xlink" width="200" height="200"><path d="M512 959.977913a446.525097 446.525097 0 1 1 174.367422-35.201349 445.111546 445.111546 0 0 1-174.367422 35.201349z m0-876.27409C275.838797 83.674374 83.674374 275.7799 83.674374 512S275.838797 940.345259 512 940.345259s428.31581-192.17424 428.31581-428.345259S748.171019 83.674374 512 83.674374z" fill="#FFBBEA" p-id="5596"></path><path d="M512 910.179685a396.933011 396.933011 0 1 1 154.989992-31.294452 395.597991 395.597991 0 0 1-154.989992 31.294452z m0-786.552859c-214.152997 0-388.373174 174.220177-388.373174 388.373174s174.220177 388.363357 388.373174 388.363357 388.363357-174.220177 388.363357-388.363357-174.220177-388.373174-388.363357-388.373174z" fill="#FFBBEA" p-id="5597"></path><path d="M512 513.266306m-44.664289 0a44.664289 44.664289 0 1 0 89.328578 0 44.664289 44.664289 0 1 0-89.328578 0Z" fill="#FFBBEA" p-id="5598"></path><path d="M512 207.065608s-33.179186 93.539783-34.268799 106.595499 36.987921 94.639212 36.987922 94.639211 33.16937-80.493884 33.16937-94.089497-35.888493-107.145213-35.888493-107.145213zM251.494306 250.561755S366.78707 448.54726 384.731316 459.404118s29.772921 27.485716 59.830515 27.191227c4.908164-20.535757 22.793512-36.438207 33.149738-36.987921s-4.976878-46.804249-26.356839-66.348557C426.028605 360.200314 251.494306 250.561755 251.494306 250.561755zM208.322098 510.723877s93.539783 33.179186 106.595499 34.258983 94.629395-36.978105 94.629395-36.978105-80.493884-33.179186-94.079681-33.179187-107.145213 35.898309-107.145213 35.898309zM251.828061 771.229572s197.965873-115.292764 208.842363-133.227195 27.485716-29.763104 27.191227-59.820698c-20.535757-4.908164-36.438207-22.793512-36.978105-33.149738s-46.814065 4.976878-66.348556 26.347023c-23.117451 25.277043-132.706929 199.850608-132.706929 199.850608zM512 816.944208s33.16937-93.549599 34.258982-106.595498-36.978105-94.629395-36.978105-94.629396-33.179186 80.493884-33.179186 94.079681 35.898309 107.145213 35.898309 107.145213zM772.54496 773.467694s-115.341846-197.995322-133.286093-208.871812-29.772921-27.485716-59.820698-27.191227c-4.908164 20.52594-22.803328 36.438207-33.159554 36.978105s4.976878 46.814065 26.356839 66.348556C597.922313 663.848767 772.54496 773.467694 772.54496 773.467694zM815.668085 513.266306s-93.539783-33.16937-106.595498-34.288431-94.629395 36.978105-94.629395 36.978105 80.493884 33.179186 94.089497 33.179186 107.135396-35.86886 107.135396-35.86886zM772.162123 252.760612S574.19625 368.053376 563.319759 386.007439s-27.485716 29.772921-27.191226 59.820699c20.535757 4.908164 36.438207 22.803328 36.978105 33.159553s46.814065-4.976878 66.348556-26.356839C662.602094 427.343993 772.162123 252.760612 772.162123 252.760612z" fill="#FFBBEA" p-id="5599"></path></svg>