<?xml version="1.0" standalone="no"?><!DOCTYPE svg PUBLIC "-//W3C//DTD SVG 1.1//EN" "http://www.w3.org/Graphics/SVG/1.1/DTD/svg11.dtd"><svg t="1699717474530" class="icon" viewBox="0 0 1104 1024" version="1.1" xmlns="http://www.w3.org/2000/svg" p-id="3734" xmlns:xlink="http://www.w3.org/1999/xlink" width="215.625" height="200"><path d="M446.180278 310.560678s-108.920024-120.628191-168.297156-145.453842-113.364791 66.934785-154.389837 48.582698S38.206413 119.76092 32.816939 92.76709l-24.779189 108.904537s15.208227 74.043315 53.987658 104.862432c42.109135 33.467393 106.860254 22.672958 158.695221-39.940956s138.686025 93.897641 138.686026 93.897641z" fill="#F4DADD" p-id="3735"></path><path d="M356.355717 371.114822l-3.840774-6.907199c-15.486993-27.876588-63.899335-101.161041-101.037145-104.583667-9.431579-0.867272-17.593224 3.004477-24.918572 11.84755-51.66461 62.443557-121.35608 79.32438-169.474169 41.071507C16.571083 280.345554 0.975681 206.317725 0.340714 203.173866L0 201.594192l33.250575-145.810042 7.170478 35.465215c4.754507 23.772535 47.637992 98.094616 86.262553 115.362613 14.805566 6.628433 33.947489-6.427102 56.14035-21.542408 29.038113-19.776891 61.947973-42.202057 98.063642-27.102238 60.275378 25.197338 166.562613 142.480339 171.053842 147.405203l6.442589 7.124017z m-107.557169-126.993346c1.362855 0 2.725711 0 4.11954 0.185844 45.655656 4.227949 95.043678 81.786812 109.229764 105.683243l71.735754-41.257351c-24.221658-26.018149-110.097036-115.951119-159.035935-136.424924-28.356685-11.84755-56.326195 7.201452-83.366485 25.630974-24.934059 17.035693-48.489776 33.033757-71.24017 22.874289-34.257229-15.316636-69.118451-66.129462-85.705021-101.083605l-18.708288 82.081064c2.446945 10.701512 17.794555 72.494616 50.859286 98.776044 19.11095 15.19274 43.673321 20.365396 69.1804 14.573261 27.876588-6.318693 55.056261-24.779189 78.735874-53.383666 9.710345-11.816576 21.186207-17.71712 34.179794-17.717121z" fill="#EFABAB" p-id="3736"></path><path d="M658.073321 310.607139s108.920024-120.628191 168.297157-145.453842 113.364791 66.934785 154.389837 48.582698 85.286872-93.928615 90.676346-120.922444l24.779189 108.904537s-15.19274 74.043315-53.972172 104.862432c-42.109135 33.467393-106.860254 22.672958-158.695221-39.940956s-138.686025 93.897641-138.686025 93.897641z" fill="#F4DADD" p-id="3737"></path><path d="M747.851422 371.161283l-101.88893-58.61827 6.44259-7.124017c4.491228-4.986812 110.778463-122.207864 171.053841-147.405203 36.115668-15.099819 69.025529 7.325348 98.063642 27.102238 22.177374 15.115306 41.334785 28.170841 56.140351 21.542408 38.624561-17.267998 81.508046-91.590079 86.262553-115.362613l7.093043-35.480702 33.17314 145.779068-0.340714 1.641622c-0.634967 3.097399-16.230369 77.171688-56.744344 109.369147a92.023714 92.023714 0 0 1-58.15366 20.318935c-37.555959 0-78.162855-21.310103-111.335995-61.390442-7.325348-8.843073-15.486993-12.714822-24.903085-11.84755-37.168784 3.422626-85.534664 76.660617-101.037145 104.583666z m-77.527889-62.443558l71.735753 41.257351c14.186086-23.896431 63.574108-101.455293 109.229764-105.683243 14.712644-1.362855 27.582335 4.491228 38.268361 17.407381 23.679613 28.604477 50.905747 47.064973 78.735874 53.383666 25.507078 5.792136 50.069449 0.61948 69.180399-14.573261 33.126679-26.327889 48.427828-88.074531 50.859286-98.776044l-18.708288-82.081064c-16.58657 34.954144-51.447792 85.766969-85.705021 101.083605a35.898851 35.898851 0 0 1-14.867513 3.174834c-18.104295 0-36.781609-12.730309-56.326195-26.049123-27.04029-18.429522-55.0098-37.478524-83.366485-25.630974-48.938899 20.535753-134.814277 110.453237-159.035935 136.486872z" fill="#EFABAB" p-id="3738"></path><path d="M915.854325 481.614519c-73.408348-148.969389-207.277919-222.36225-360.103569-220.209558l-0.216818 0.340714-0.201331-0.340714c-152.82565-2.152692-286.695221 71.240169-360.103569 220.209558S113.209921 868.092438 527.750272 868.092438q14.542287 0 27.783666-0.991168 13.272353 0.975681 27.799153 0.991168c414.571325 0 405.929583-237.50853 332.521234-386.477919z" fill="#F4DADD" p-id="3739"></path><path d="M583.333091 875.835935c-9.555475 0-18.894132-0.325227-27.799153-0.960194-8.889534 0.634967-18.228191 0.960194-27.783666 0.960194-93.448518 0-171.084815-12.15729-230.756201-36.100182-53.461101-21.464973-93.154265-52.578342-117.964428-92.472837-62.102843-99.829159-14.201573-221.464005 9.292196-269.071022 36.487356-74.058802 88.059044-131.252269 153.321234-170.016213 62.73781-37.29268 134.659407-55.62928 213.890865-54.514217h0.201331c79.154023-1.099577 151.153055 17.221537 213.890865 54.514217 65.200242 38.717483 116.77193 96.019359 153.321234 170.016213 23.478282 47.637992 71.379552 169.226376 9.292196 269.071022-24.779189 39.894495-64.503327 71.007864-117.979915 92.472837-59.888203 23.942892-137.47804 36.100181-230.926558 36.100182z m-27.799153-16.493648h0.573019c8.688203 0.634967 17.841016 0.960194 27.226134 0.960193 91.466183 0 167.166606-11.770115 224.99504-34.985118 50.348215-20.133091 87.547973-49.248639 110.592619-86.27804 57.99879-93.247187 12.389595-208.718209-10.020085-253.98669-68.065336-138.143981-195.136116-216.724985-348.860012-215.935149l-4.522202 7.124017-4.491228-7.124017h-2.152692c-152.82565 0-278.936237 78.426134-346.691833 215.935149-22.332244 45.33043-68.018875 160.801452-10.020085 253.98669 23.044646 37.029401 60.244404 66.067514 110.59262 86.27804 57.828433 23.23049 133.528857 34.985118 224.995039 34.985118 9.385118 0 18.584392-0.325227 27.226135-0.960193z" fill="#EFABAB" p-id="3740"></path><path d="M567.458923 268.730309s-20.783545-0.263279-26.715063 0 2.152692 16.199395 2.152692 16.199395h26.451784z" fill="#F4DADD" p-id="3741"></path><path d="M308.95003 692.531881a207.092075 207.092075 0 0 0-16.013551-20.504779c-7.557653-8.099698-27.535874 11.506836-27.535874 11.506836l8.982456 41.350273a5.04876 5.04876 0 0 0 8.982456 1.951361z" fill="#FFF5F6" p-id="3742"></path><path d="M279.369873 732.798064a9.292196 9.292196 0 0 1-1.935874-0.201331 8.812099 8.812099 0 0 1-6.829764-6.814277l-9.431579-43.456503 1.548699-1.5487c1.548699-1.548699 15.146279-14.588748 25.44513-14.588747h0.263279a10.113007 10.113007 0 0 1 7.371809 3.19032 212.915185 212.915185 0 0 1 16.385239 20.969389l1.548699 2.292075-27.241621 36.518331a8.812099 8.812099 0 0 1-7.124017 3.639443z m-9.741319-48.009679l8.517846 39.213067a1.068603 1.068603 0 0 0 0.898246 0.898246 1.08409 1.08409 0 0 0 1.177012-0.433636l23.958378-31.934181a191.558621 191.558621 0 0 0-14.077677-17.794555 2.36951 2.36951 0 0 0-1.889413-0.789837c-4.769994-0.139383-13.318814 6.194797-18.584392 10.840896z" fill="#EFABAB" p-id="3743"></path><path d="M318.660375 688.102601s15.115306-35.263884 23.029159-34.907683 16.214882 40.885662 16.214882 40.885663l-16.865336 2.958015z" fill="#FFF5F6" p-id="3744"></path><path d="M340.605445 701.065215l-27.055778-10.840896 1.5487-3.65493c7.309861-17.035693 17.810042-37.168784 26.513732-37.168784h0.263279c5.451422 0.247792 9.694858 7.015608 14.588748 23.354386 3.097399 10.236903 5.126195 20.2415 5.219117 20.659649l0.867271 3.763339z m-16.772414-15.068845l17.624198 7.062069 11.801089-2.075257c-3.639443-16.400726-8.85856-31.330188-11.863037-33.808106-3.345191 1.703569-11.057713 14.402904-17.56225 28.821294z m17.25251-29.084573z" fill="#EFABAB" p-id="3745"></path><path d="M367.970962 699.470054s4.847429 36.00726 17.267997 36.00726 19.947247-33.653237 19.947248-33.653237z" fill="#FFF5F6" p-id="3746"></path><path d="M385.238959 739.349062c-15.037871 0-20.226013-32.801452-21.108771-39.367937l-0.634967-4.646098 46.46098 2.896068-0.991168 4.42928c-1.378342 6.101875-8.951482 36.688687-23.726074 36.688687z m-12.699334-35.728493c2.555354 14.263521 7.836419 27.984997 12.699334 27.984997 5.389474 0 11.708167-14.093164 15.053358-26.327889z" fill="#EFABAB" p-id="3747"></path><path d="M416.754991 711.875136c-9.292196 0-22.425166-2.028796-38.37677-4.522202-21.248155-3.314217-47.69994-7.433757-74.337568-8.006776l0.340714-15.486993c27.597822 0.603993 54.622626 4.816455 76.319903 8.19262 17.035693 2.648276 31.655414 4.924864 39.089172 4.212462 21.898609-2.121718 43.022868-7.433757 63.496672-12.559952 25.119903-6.318693 48.861464-12.281186 72.788869-12.281186v15.486994c-21.976044 0-44.803872 5.730188-68.963581 11.816576-20.984876 5.265578-42.682154 10.716999-65.742287 12.962613-1.44029 0.123896-2.973503 0.185844-4.615124 0.185844z" fill="#EFABAB" p-id="3748"></path><path d="M803.217423 692.531881a207.092075 207.092075 0 0 1 16.013551-20.504779c7.557653-8.099698 27.535874 11.506836 27.535874 11.506836l-8.982456 41.350273a5.04876 5.04876 0 0 1-8.982456 1.951361z" fill="#FFF5F6" p-id="3749"></path><path d="M832.79758 732.798064a8.796612 8.796612 0 0 1-7.093043-3.592982l-27.241621-36.502844 1.548699-2.292075a209.182819 209.182819 0 0 1 16.369752-20.969389 10.113007 10.113007 0 0 1 7.371809-3.19032c10.376286-0.201331 24.15971 13.071022 25.708409 14.588747l1.548699 1.5487-9.431579 43.456503a8.812099 8.812099 0 0 1-6.829764 6.814277 9.292196 9.292196 0 0 1-1.951361 0.139383z m-24.779189-40.266183l23.911918 32.073564a1.177011 1.177011 0 0 0 2.075257-0.46461l8.517846-39.35245c-5.20363-4.73902-13.613067-10.840895-18.460496-10.840896h-0.123896a2.415971 2.415971 0 0 0-1.873926 0.727889 188.461222 188.461222 0 0 0-14.06219 17.856503z" fill="#EFABAB" p-id="3750"></path><path d="M793.507078 688.102601s-15.115306-35.263884-23.029159-34.907683-16.199395 40.885662-16.199395 40.885663l16.865336 2.958015z" fill="#FFF5F6" p-id="3751"></path><path d="M771.562008 701.065215l-21.83666-3.887236 0.789837-3.902722c0.092922-0.418149 2.137205-10.422747 5.219116-20.659649 4.89389-16.338778 9.137326-23.106594 14.588748-23.354386h0.263279c8.70369 0 19.203872 20.133091 26.513732 37.168784l1.5487 3.65493z m-12.652873-10.066546l11.816576 2.05977 17.624198-7.062069c-6.520024-14.418391-14.232547-27.117725-17.577737-28.805807-3.004477 2.477919-8.223593 17.407381-11.863037 33.792619z m11.506836-33.947489z" fill="#EFABAB" p-id="3752"></path><path d="M744.196491 699.470054s-4.847429 36.00726-17.267997 36.00726-19.947247-33.653237-19.947248-33.653237z" fill="#FFF5F6" p-id="3753"></path><path d="M726.928494 739.349062c-14.774592 0-22.347731-30.586812-23.726074-36.719661l-0.991168-4.42928 46.46098-2.896068-0.634966 4.646098c-0.882759 6.597459-6.055414 39.398911-21.108772 39.398911z m-15.053358-34.071385c3.345191 12.15729 9.663884 26.327889 15.053358 26.327889s10.329825-15.022384 12.683847-27.984997z" fill="#EFABAB" p-id="3754"></path><path d="M695.412462 711.875136c-1.641621 0-3.097399 0-4.646098-0.185844-23.060133-2.245614-44.757411-7.743497-65.742287-12.962613-24.15971-6.086388-46.987538-11.816576-68.963581-11.816576v-15.486994c23.896431 0 47.622505 5.962492 72.788869 12.281186 20.427344 5.126195 41.551603 10.438234 63.496673 12.559952 7.433757 0.727889 22.09994-1.548699 39.089171-4.212462 21.681791-3.376165 48.722081-7.588627 76.319903-8.19262l0.340714 15.486993c-26.575681 0.573019-53.027465 4.646098-74.337568 8.006776-15.920629 2.493406-28.945191 4.522202-38.345796 4.522202z" fill="#EFABAB" p-id="3755"></path><path d="M438.065094 535.447308c3.515547 24.00484 7.402783 54.374834-6.612946 68.266667-15.81222 15.672837-50.998669 13.458197-79.850938 9.942649-47.405687-5.792136-86.463884-35.016092-86.463884-78.209316s38.717483-78.193829 86.463884-78.193829 80.207139 35.496189 86.463884 78.193829z" fill="#EC4F40" p-id="3756"></path><path d="M378.548578 521.989111m-25.29026 0a25.29026 25.29026 0 1 0 50.58052 0 25.29026 25.29026 0 1 0-50.58052 0Z" fill="#FFFFFF" p-id="3757"></path><path d="M673.01827 535.447308c-3.515547 24.00484-7.402783 54.374834 6.612946 68.266667 15.81222 15.672837 50.998669 13.458197 79.850938 9.942649 47.405687-5.792136 86.463884-35.016092 86.463884-78.209316s-38.717483-78.193829-86.463884-78.193829-80.207139 35.496189-86.463884 78.193829z" fill="#EC4F40" p-id="3758"></path><path d="M732.534785 521.989111m-25.29026 0a25.29026 25.29026 0 1 0 50.58052 0 25.29026 25.29026 0 1 0-50.58052 0Z" fill="#FFFFFF" p-id="3759"></path></svg>