<?xml version="1.0" standalone="no"?><!DOCTYPE svg PUBLIC "-//W3C//DTD SVG 1.1//EN" "http://www.w3.org/Graphics/SVG/1.1/DTD/svg11.dtd"><svg t="1699976778812" class="icon" viewBox="0 0 1024 1024" version="1.1" xmlns="http://www.w3.org/2000/svg" p-id="2149" xmlns:xlink="http://www.w3.org/1999/xlink" width="200" height="200"><path d="M514.389333 522.069333m-486.741333 0a486.741333 486.741333 0 1 0 973.482667 0 486.741333 486.741333 0 1 0-973.482667 0Z" fill="#040000" p-id="2150"></path><path d="M514.389333 522.069333m-444.245333 0a444.245333 444.245333 0 1 0 888.490667 0 444.245333 444.245333 0 1 0-888.490667 0Z" fill="#F3C81E" p-id="2151"></path><path d="M360.618667 713.898667c22.698667-68.778667 87.381333-118.442667 163.669333-118.442667 71.509333 0 132.778667 43.52 158.890667 105.472 12.629333 2.218667 25.088 4.778667 37.034666 7.509333-25.429333-84.138667-103.594667-145.408-195.925333-145.408-98.474667 0-180.736 69.461333-200.362667 162.133334 11.946667-4.096 24.064-7.850667 36.693334-11.264z" fill="#040000" p-id="2152"></path><path d="M384.512 958.805333l-94.549333-53.077333V426.666667h94.549333z" fill="#4ABECD" p-id="2153"></path><path d="M401.578667 987.989333l-128.682667-72.192V409.6h128.682667v578.389333z m-94.549334-92.330666l60.416 33.962666V443.733333h-60.416v451.925334z" fill="#040000" p-id="2154"></path><path d="M745.130667 905.728l-94.549334 49.664V426.666667h94.549334z" fill="#4ABECD" p-id="2155"></path><path d="M633.514667 983.552V409.6h128.682666v506.368l-128.682666 67.584z m34.133333-539.818667v483.498667l60.416-31.744V443.733333h-60.416zM443.562667 437.248H224.085333c-1.024 0-1.877333-0.853333-1.877333-1.877333v-31.232c0-1.024 0.853333-1.877333 1.877333-1.877334h219.477334c1.024 0 1.877333 0.853333 1.877333 1.877334v31.232c0 1.194667-0.853333 1.877333-1.877333 1.877333z" fill="#040000" p-id="2156"></path><path d="M804.522667 437.248H585.045333c-1.024 0-1.877333-0.853333-1.877333-1.877333v-31.232c0-1.024 0.853333-1.877333 1.877333-1.877334h219.477334c1.024 0 1.877333 0.853333 1.877333 1.877334v31.232c0 1.194667-0.853333 1.877333-1.877333 1.877333z" fill="#040000" p-id="2157"></path><path d="M107.690667 611.157333C107.690667 352.085333 317.781333 141.994667 576.853333 141.994667c100.522667 0 193.536 31.744 269.994667 85.504-81.408-91.818667-200.192-149.674667-332.458667-149.674667-245.248 0-444.245333 198.826667-444.245333 444.245333 0 76.970667 19.626667 149.162667 53.930667 212.309334-10.581333-39.253333-16.384-80.554667-16.384-123.221334z" fill="#F6D85E" p-id="2158"></path></svg>